<svg xmlns="http://www.w3.org/2000/svg" width="36" height="35" viewBox="0 0 36 35" fill="none">
<path d="M1.59375 0.508728C1.23084 0.508728 0.9375 0.792985 0.9375 1.14323V3.04673C0.9375 3.39698 1.23084 3.68123 1.59375 3.68123C1.95666 3.68123 2.25 3.39698 2.25 3.04673V1.77773H3.5625C3.92541 1.77773 4.21875 1.49347 4.21875 1.14323C4.21875 0.792985 3.92541 0.508728 3.5625 0.508728H1.59375ZM6.16827 0.508728C5.81587 0.508728 5.53125 0.792985 5.53125 1.14323C5.53125 1.49347 5.81652 1.77773 6.16827 1.77773H8.83173C9.18413 1.77773 9.46875 1.49347 9.46875 1.14323C9.46875 0.792985 9.18348 0.508728 8.83173 0.508728H6.16827ZM11.4183 0.508728C11.0665 0.508728 10.7812 0.792985 10.7812 1.14323C10.7812 1.49347 11.0665 1.77773 11.4183 1.77773H14.0817C14.4335 1.77773 14.7188 1.49347 14.7188 1.14323C14.7188 0.792985 14.4341 0.508728 14.0817 0.508728H11.4183ZM16.6683 0.508728C16.3159 0.508728 16.0312 0.792985 16.0312 1.14323C16.0312 1.49347 16.3165 1.77773 16.6683 1.77773H19.3317C19.6841 1.77773 19.9688 1.49347 19.9688 1.14323C19.9688 0.792985 19.6835 0.508728 19.3317 0.508728H16.6683ZM21.9183 0.508728C21.5659 0.508728 21.2812 0.792985 21.2812 1.14323C21.2812 1.49347 21.5665 1.77773 21.9183 1.77773H24.5817C24.9341 1.77773 25.2188 1.49347 25.2188 1.14323C25.2188 0.792985 24.9335 0.508728 24.5817 0.508728H21.9183ZM27.1683 0.508728C26.8165 0.508728 26.5312 0.792985 26.5312 1.14323C26.5312 1.49347 26.8165 1.77773 27.1683 1.77773H29.8317C30.1835 1.77773 30.4688 1.49347 30.4688 1.14323C30.4688 0.792985 30.1841 0.508728 29.8317 0.508728H27.1683ZM32.4375 0.508728C32.0746 0.508728 31.7812 0.792985 31.7812 1.14323C31.7812 1.49347 32.0746 1.77773 32.4375 1.77773H33.75V3.04673C33.75 3.39698 34.0433 3.68123 34.4062 3.68123C34.7692 3.68123 35.0625 3.39698 35.0625 3.04673V1.14323C35.0625 0.792985 34.7692 0.508728 34.4062 0.508728H32.4375ZM29.7997 4.94404C29.7752 4.94479 29.7508 4.94686 29.7266 4.95024H23.4218C23.3348 4.94905 23.2485 4.96458 23.1678 4.99593C23.0871 5.02729 23.0136 5.07383 22.9517 5.13287C22.8897 5.19191 22.8406 5.26226 22.807 5.33983C22.7734 5.4174 22.7562 5.50065 22.7562 5.58474C22.7562 5.66882 22.7734 5.75207 22.807 5.82965C22.8406 5.90722 22.8897 5.97757 22.9517 6.0366C23.0136 6.09564 23.0871 6.14219 23.1678 6.17354C23.2485 6.20489 23.3348 6.22043 23.4218 6.21924H28.2283L19.0408 15.1023H1.59375C1.41971 15.1023 1.2528 15.1691 1.12973 15.2881C1.00666 15.4071 0.937517 15.5685 0.9375 15.7368V32.8683C0.937517 33.0366 1.00666 33.1979 1.12973 33.3169C1.2528 33.4359 1.41971 33.5028 1.59375 33.5028H19.3125C19.4865 33.5028 19.6535 33.4359 19.7765 33.3169C19.8996 33.1979 19.9687 33.0366 19.9688 32.8683V15.9995L29.1562 7.11646V11.7637C29.155 11.8478 29.1711 11.9312 29.2035 12.0093C29.2359 12.0873 29.2841 12.1583 29.3451 12.2182C29.4062 12.2781 29.479 12.3256 29.5592 12.3581C29.6394 12.3905 29.7255 12.4072 29.8125 12.4072C29.8995 12.4072 29.9856 12.3905 30.0658 12.3581C30.146 12.3256 30.2188 12.2781 30.2799 12.2182C30.3409 12.1583 30.3891 12.0873 30.4215 12.0093C30.4539 11.9312 30.47 11.8478 30.4688 11.7637V5.66529C30.4818 5.57394 30.4741 5.48093 30.4462 5.39274C30.4183 5.30455 30.3709 5.2233 30.3072 5.15465C30.2435 5.08599 30.1651 5.03159 30.0775 4.99521C29.9898 4.95884 29.895 4.94138 29.7997 4.94404ZM34.4062 4.95024C34.0433 4.95024 33.75 5.22669 33.75 5.56615V8.14133C33.75 8.48142 34.0433 8.75724 34.4062 8.75724C34.7692 8.75724 35.0625 8.48079 35.0625 8.14133V5.56615C35.0625 5.22606 34.7692 4.95024 34.4062 4.95024ZM0.9375 5.58474C0.574594 5.58474 0.28125 5.86836 0.28125 6.21924C0.28125 6.57012 0.574594 6.85374 0.9375 6.85374H2.25C2.61291 6.85374 2.90625 6.57012 2.90625 6.21924C2.90625 5.86836 2.61291 5.58474 2.25 5.58474H0.9375ZM0.9375 8.75724C0.574594 8.75724 0.28125 9.04086 0.28125 9.39174C0.28125 9.74262 0.574594 10.0262 0.9375 10.0262H2.25C2.61291 10.0262 2.90625 9.74262 2.90625 9.39174C2.90625 9.04086 2.61291 8.75724 2.25 8.75724H0.9375ZM34.4062 10.0262C34.0433 10.0262 33.75 10.3027 33.75 10.6422V13.2173C33.75 13.5574 34.0433 13.8333 34.4062 13.8333C34.7692 13.8333 35.0625 13.5568 35.0625 13.2173V10.6422C35.0625 10.3021 34.7692 10.0262 34.4062 10.0262ZM0.9375 11.9297C0.574594 11.9297 0.28125 12.2134 0.28125 12.5642C0.28125 12.9151 0.574594 13.1987 0.9375 13.1987H2.25C2.61291 13.1987 2.90625 12.9151 2.90625 12.5642C2.90625 12.2134 2.61291 11.9297 2.25 11.9297H0.9375ZM34.4062 15.1023C34.0433 15.1023 33.75 15.3787 33.75 15.7182V18.2933C33.75 18.6334 34.0433 18.9093 34.4062 18.9093C34.7692 18.9093 35.0625 18.6328 35.0625 18.2933V15.7182C35.0625 15.3781 34.7692 15.1023 34.4062 15.1023ZM2.25 16.3713H18.6562V32.2338H2.25V16.3713ZM34.4062 20.1783C34.0433 20.1783 33.75 20.4547 33.75 20.7942V23.3694C33.75 23.7094 34.0433 23.9853 34.4062 23.9853C34.7692 23.9853 35.0625 23.7088 35.0625 23.3694V20.7942C35.0625 20.4541 34.7692 20.1783 34.4062 20.1783ZM34.4062 25.2543C34.0433 25.2543 33.75 25.5307 33.75 25.8702V28.4454C33.75 28.7855 34.0433 29.0613 34.4062 29.0613C34.7692 29.0613 35.0625 28.7848 35.0625 28.4454V25.8702C35.0625 25.5301 34.7692 25.2543 34.4062 25.2543ZM34.4062 30.3303C34.0433 30.3303 33.75 30.6145 33.75 30.9648V32.2338H32.4375C32.0746 32.2338 31.7812 32.518 31.7812 32.8683C31.7812 33.2185 32.0746 33.5028 32.4375 33.5028H34.4062C34.7692 33.5028 35.0625 33.2185 35.0625 32.8683V30.9648C35.0625 30.6145 34.7692 30.3303 34.4062 30.3303ZM22.5938 31.5993C22.2308 31.5993 21.9375 31.8829 21.9375 32.2338V33.5028C21.9375 33.8537 22.2308 34.1373 22.5938 34.1373C22.9567 34.1373 23.25 33.8537 23.25 33.5028V32.2338C23.25 31.8829 22.9567 31.5993 22.5938 31.5993ZM25.875 31.5993C25.5121 31.5993 25.2188 31.8829 25.2188 32.2338V33.5028C25.2188 33.8537 25.5121 34.1373 25.875 34.1373C26.2379 34.1373 26.5312 33.8537 26.5312 33.5028V32.2338C26.5312 31.8829 26.2379 31.5993 25.875 31.5993ZM29.1562 31.5993C28.7933 31.5993 28.5 31.8829 28.5 32.2338V33.5028C28.5 33.8537 28.7933 34.1373 29.1562 34.1373C29.5192 34.1373 29.8125 33.8537 29.8125 33.5028V32.2338C29.8125 31.8829 29.5192 31.5993 29.1562 31.5993Z" fill="#07A530"/>
</svg>