<svg xmlns:x="http://ns.adobe.com/Extensibility/1.0/" xmlns:i="http://ns.adobe.com/AdobeIllustrator/10.0/" xmlns:graph="http://ns.adobe.com/Graphs/1.0/" xmlns="http://www.w3.org/2000/svg" xmlns:xlink="http://www.w3.org/1999/xlink" version="1.1" enable-background="new 0 0 108 108" xml:space="preserve" width="108" height="108" style=""><rect id="backgroundrect" width="100%" height="100%" x="0" y="0" fill="none" stroke="none"/>
<metadata><?xpacket begin="﻿" id="W5M0MpCehiHzreSzNTczkc9d"?>
<x:xmpmeta xmlns:x="adobe:ns:meta/" x:xmptk="Adobe XMP Core 7.1-c000 79.a8731b9, 2021/09/09-00:37:38        ">
   <rdf:RDF xmlns:rdf="http://www.w3.org/1999/02/22-rdf-syntax-ns#">
      <rdf:Description xmlns:xmp="http://ns.adobe.com/xap/1.0/" xmlns:xmpGImg="http://ns.adobe.com/xap/1.0/g/img/" xmlns:xmpTPg="http://ns.adobe.com/xap/1.0/t/pg/" xmlns:stDim="http://ns.adobe.com/xap/1.0/sType/Dimensions#" xmlns:xmpG="http://ns.adobe.com/xap/1.0/g/" xmlns:dc="http://purl.org/dc/elements/1.1/" xmlns:xmpMM="http://ns.adobe.com/xap/1.0/mm/" xmlns:stRef="http://ns.adobe.com/xap/1.0/sType/ResourceRef#" xmlns:stEvt="http://ns.adobe.com/xap/1.0/sType/ResourceEvent#" rdf:about="">
         <xmp:CreatorTool>Adobe Illustrator 26.0 (Windows)</xmp:CreatorTool>
         <xmp:CreateDate>2022-12-26T13:57:15+03:00</xmp:CreateDate>
         <xmp:MetadataDate>2022-12-26T13:57:15+03:00</xmp:MetadataDate>
         <xmp:ModifyDate>2022-12-26T13:57:15+03:00</xmp:ModifyDate>
         <xmp:Thumbnails>
            <rdf:Alt>
               <rdf:li rdf:parseType="Resource">
                  <xmpGImg:width>256</xmpGImg:width>
                  <xmpGImg:height>256</xmpGImg:height>
                  <xmpGImg:format>JPEG</xmpGImg:format>
                  <xmpGImg:image id="svg_1" xlink:href="undefined"></xmpGImg:image>
               </rdf:li>
            </rdf:Alt>
         </xmp:Thumbnails>
         <xmpTPg:MaxPageSize rdf:parseType="Resource">
            <stDim:w>38.100000</stDim:w>
            <stDim:h>38.100000</stDim:h>
            <stDim:unit>Millimeters</stDim:unit>
         </xmpTPg:MaxPageSize>
         <xmpTPg:NPages>1</xmpTPg:NPages>
         <xmpTPg:HasVisibleTransparency>False</xmpTPg:HasVisibleTransparency>
         <xmpTPg:HasVisibleOverprint>False</xmpTPg:HasVisibleOverprint>
         <xmpTPg:PlateNames>
            <rdf:Seq>
               <rdf:li>Cyan</rdf:li>
               <rdf:li>Magenta</rdf:li>
               <rdf:li>Yellow</rdf:li>
               <rdf:li>Black</rdf:li>
            </rdf:Seq>
         </xmpTPg:PlateNames>
         <xmpTPg:SwatchGroups>
            <rdf:Seq>
               <rdf:li rdf:parseType="Resource">
                  <xmpG:groupName>Группа образцов по умолчанию</xmpG:groupName>
                  <xmpG:groupType>0</xmpG:groupType>
               </rdf:li>
            </rdf:Seq>
         </xmpTPg:SwatchGroups>
         <dc:format>image/svg+xml</dc:format>
         <xmpMM:DerivedFrom rdf:parseType="Resource">
            <stRef:instanceID>xmp.iid:9417dd8e-72dd-f349-9c32-4d417a7fb246</stRef:instanceID>
            <stRef:documentID>xmp.did:9417dd8e-72dd-f349-9c32-4d417a7fb246</stRef:documentID>
            <stRef:originalDocumentID>xmp.did:35699716-a0ab-5f48-a1bc-f9339d11e024</stRef:originalDocumentID>
         </xmpMM:DerivedFrom>
         <xmpMM:DocumentID>xmp.did:9c432452-488b-5f4b-b470-18f981687eb3</xmpMM:DocumentID>
         <xmpMM:InstanceID>xmp.iid:9c432452-488b-5f4b-b470-18f981687eb3</xmpMM:InstanceID>
         <xmpMM:OriginalDocumentID>xmp.did:35699716-a0ab-5f48-a1bc-f9339d11e024</xmpMM:OriginalDocumentID>
         <xmpMM:History>
            <rdf:Seq>
               <rdf:li rdf:parseType="Resource">
                  <stEvt:action>saved</stEvt:action>
                  <stEvt:instanceID>xmp.iid:35699716-a0ab-5f48-a1bc-f9339d11e024</stEvt:instanceID>
                  <stEvt:when>2022-12-26T12:59:27+03:00</stEvt:when>
                  <stEvt:softwareAgent>Adobe Illustrator 26.0 (Windows)</stEvt:softwareAgent>
                  <stEvt:changed>/</stEvt:changed>
               </rdf:li>
               <rdf:li rdf:parseType="Resource">
                  <stEvt:action>saved</stEvt:action>
                  <stEvt:instanceID>xmp.iid:9c432452-488b-5f4b-b470-18f981687eb3</stEvt:instanceID>
                  <stEvt:when>2022-12-26T13:57:15+03:00</stEvt:when>
                  <stEvt:softwareAgent>Adobe Illustrator 26.0 (Windows)</stEvt:softwareAgent>
                  <stEvt:changed>/</stEvt:changed>
               </rdf:li>
            </rdf:Seq>
         </xmpMM:History>
      </rdf:Description>
   </rdf:RDF>
</x:xmpmeta>
                                                                                                    
                                                                                                    
                                                                                                    
                                                                                                    
                                                                                                    
                                                                                                    
                                                                                                    
                                                                                                    
                                                                                                    
                                                                                                    
                                                                                                    
                                                                                                    
                                                                                                    
                                                                                                    
                                                                                                    
                                                                                                    
                                                                                                    
                                                                                                    
                                                                                                    
                                                                                                    
                           
<?xpacket end="w"?>
	</metadata>

<g class="currentLayer" style=""><title>Layer 1</title><g id="svg_2">
	
		<linearGradient id="SVGID_1_" x1="0.2176152529289762" y1="-0.16403646899538318" x2="0.8577371507500182" y2="1.3416604982807574">
		<stop offset="0" style="stop-color:#FAFFBC"/>
		<stop offset="1" style="stop-color:#C5FFF2"/>
	</linearGradient>
	
		<linearGradient id="SVGID_00000080168125388190493030000012966965371631850644_" x1="0.13679126021325083" y1="0.0738880574223678" x2="0.9702280083377892" y2="1.0516657545058437">
		<stop offset="0" style="stop-color:#FFFFFF"/>
		<stop offset="1" style="stop-color:#D4FFE3"/>
	</linearGradient>
	<path fill="url(#SVGID_1_)" stroke="url(#SVGID_00000080168125388190493030000012966965371631850644_)" stroke-width="2" d="   M49,5.3c2.9-2.3,7.1-2.3,10,0c2.5,2,5.9,2.7,9,1.8c3.6-1,7.4,0.6,9.2,3.8c1.6,2.8,4.4,4.7,7.7,5.1c3.7,0.4,6.7,3.4,7.1,7.1   c0.4,3.2,2.3,6.1,5.1,7.7c3.3,1.8,4.9,5.6,3.8,9.2c-0.9,3.1-0.2,6.5,1.8,9c2.3,2.9,2.3,7.1,0,10c-2,2.5-2.7,5.9-1.8,9   c1,3.6-0.6,7.4-3.8,9.2c-2.8,1.6-4.7,4.4-5.1,7.7c-0.4,3.7-3.4,6.7-7.1,7.1c-3.2,0.4-6.1,2.3-7.7,5.1c-1.8,3.3-5.6,4.9-9.2,3.8   c-3.1-0.9-6.5-0.2-9,1.8c-2.9,2.3-7.1,2.3-10,0c-2.5-2-5.9-2.7-9-1.8c-3.6,1-7.4-0.6-9.2-3.8c-1.6-2.8-4.4-4.7-7.7-5.1   c-3.7-0.4-6.7-3.4-7.1-7.1c-0.4-3.2-2.3-6.1-5.1-7.7C7.6,75.5,6,71.6,7.1,68c0.9-3.1,0.2-6.5-1.8-9C3,56.1,3,51.9,5.3,49   c2-2.5,2.7-5.9,1.8-9c-1-3.6,0.6-7.4,3.8-9.2c2.8-1.6,4.7-4.4,5.1-7.7c0.4-3.7,3.4-6.7,7.1-7.1c3.2-0.4,6.1-2.3,7.7-5.1   C32.5,7.6,36.4,6,40,7.1C43.1,8,46.5,7.3,49,5.3z" id="svg_3"/>
	<path fill-rule="evenodd" clip-rule="evenodd" fill="#008832" d="M36.9,35.7c-3.4,1.6-5,3.1-5,3.1s0,0,0,12.8   c0,9.6,3.2,22.5,22.1,32.1c7.6-3.8,12.6-8.2,15.9-12.7L36.9,35.7z" id="svg_4"/>
	<path fill="#00A434" d="M76.1,38.8v12.8c0,5.8-1.1,12.7-6.2,19.5l-33-35.4C40.4,34,46,32.4,54,32.4C69.8,32.4,76.1,38.8,76.1,38.8z   " id="svg_5"/>
	<path display="none" fill="#FFFFFF" d="M53,54.1c0,2.8-2.1,5.5-7,5.5c-2.1,0-4.4-0.5-6.1-1.4l1.8-3.9c1.3,0.8,2.8,1.1,4.1,1.1   c1.2,0,2-0.4,2-1.2c0-0.7-0.5-1.1-2.3-1.1H41l0.8-9.5H52v4h-6l-0.1,1.5h0.8C51.3,49.1,53,51.3,53,54.1z" id="svg_6"/>
	<path display="none" fill="#FFFFFF" d="M61.2,51.8c0-5,2.5-8,5.9-8c3.5,0,5.9,2.9,5.9,8s-2.5,8-5.9,8   C63.7,59.8,61.2,56.9,61.2,51.8z M68.6,51.8c0-2.9-0.6-3.8-1.5-3.8s-1.5,0.9-1.5,3.8s0.6,3.8,1.5,3.8C68,55.7,68.6,54.8,68.6,51.8z   " id="svg_7"/>
	<path fill="#FFFFFF" d="M51.1,63.7v5.2h-0.9v-4.4H48l-0.1,1.2c-0.1,1.9-0.3,3.3-1.5,3.3c-0.2,0-0.4,0-0.6-0.1l0.1-0.8   c0.1,0,0.2,0,0.2,0c0.8,0,0.9-1.3,0.9-2.5l0.1-1.9L51.1,63.7L51.1,63.7z" id="svg_8"/>
	<path fill="#FFFFFF" d="M57.5,66.6h-4.2c0.1,0.9,0.8,1.5,1.9,1.5c0.6,0,1.1-0.2,1.5-0.6l0.5,0.6c-0.5,0.6-1.2,0.8-2,0.8   c-1.7,0-2.8-1.1-2.8-2.7c0-1.5,1.1-2.7,2.6-2.7s2.5,1.1,2.5,2.7C57.5,66.4,57.5,66.5,57.5,66.6z M53.3,65.9h3.3   c-0.1-0.9-0.7-1.5-1.7-1.5C54.1,64.4,53.4,65,53.3,65.9z" id="svg_9"/>
	<path fill="#FFFFFF" d="M62.6,64.5h-1.9v4.4h-0.9v-4.4h-1.9v-0.8h4.7C62.6,63.7,62.6,64.5,62.6,64.5z" id="svg_10"/>
	<path display="none" fill="#008832" d="M35.4,91.2l3.2,1.5l2.5-5.6l0.9,0.4l-2.8,6.4L35,92L35.4,91.2z" id="svg_11"/>
	<path display="none" fill="#008832" d="M33.5,84.8l3.1,2l1.6-1l0.8,0.6l-6.3,4l-0.8-0.5l1.1-7.5l0.9,0.6L33.5,84.8z M33.4,85.7   l-0.6,3.7l3.1-2L33.4,85.7z" id="svg_12"/>
	<path display="none" fill="#008832" d="M25.3,80.9c1.1-1.1,2.5-0.9,3.7,0.3l1.2,1.2l1.5-1.5l0.7,0.7l-4.9,4.9l-1.9-1.9   C24.4,83.4,24.2,82,25.3,80.9z M26,81.6c-0.7,0.7-0.6,1.6,0.3,2.5l1.2,1.2l2.2-2.2l-1.2-1.2C27.5,81,26.7,80.9,26,81.6z" id="svg_13"/>
	<path display="none" fill="#008832" d="M24.1,74.3l2,3.1l1.8-0.3l0.6,0.9l-7.4,1.3l-0.5-0.8l4-6.5l0.6,0.9L24.1,74.3z M23.7,75.1   l-2,3.2l3.6-0.7L23.7,75.1z" id="svg_14"/>
	<path display="none" fill="#008832" d="M15.7,68l6.4-2.5l0.3,0.9l-2.9,1.1l1.4,3.8l2.9-1.1l0.3,0.9l-6.4,2.5l-0.4-0.9l2.8-1.1   l-1.4-3.7l-2.7,1L15.7,68z" id="svg_15"/>
	<path display="none" fill="#008832" d="M15,60l0.4,2.4l5.9-1l0.2,1l-5.9,1l0.4,2.3l-0.8,0.1l-0.9-5.7L15,60z" id="svg_16"/>
	<path display="none" fill="#008832" d="M14,57.8v-1l5.3,0.2l-5.2-4.3v-0.9L21,52v1l-5.3-0.2l5.2,4.3V58L14,57.8z" id="svg_17"/>
	<path display="none" fill="#008832" d="M18.4,43.7c1.4,0.4,2.1,1.7,1.6,3.4l-0.4,1.7l2,0.5l-0.2,1l-6.7-1.7l0.7-2.6   C15.8,44.1,16.9,43.3,18.4,43.7z M18.1,44.6c-0.9-0.2-1.7,0.3-2,1.5l-0.4,1.6l3,0.8l0.4-1.6C19.5,45.7,19.1,44.9,18.1,44.6z" id="svg_18"/>
	<path display="none" fill="#008832" d="M19.8,42.7c-1.8-0.9-2.4-3-1.5-4.9s3-2.6,4.8-1.7c1.8,0.9,2.4,3,1.5,4.9   C23.6,42.9,21.6,43.6,19.8,42.7z M22.6,37c-1.4-0.7-2.9-0.2-3.6,1.2s-0.2,2.9,1.1,3.6c1.4,0.7,2.9,0.2,3.6-1.2   C24.5,39.2,24,37.7,22.6,37z" id="svg_19"/>
	<path display="none" fill="#008832" d="M29.1,31c0.9,0.8,0.9,1.9-0.2,3.2l-2,2.5l-5.3-4.5l1.9-2.3c0.9-1.2,2-1.5,2.9-0.7   c0.6,0.5,0.7,1.2,0.5,1.8C27.7,30.4,28.4,30.4,29.1,31z M24.6,33.4l1.2-1.5c0.6-0.7,0.6-1.4,0.1-1.9c-0.6-0.5-1.2-0.3-1.8,0.4   L22.8,32L24.6,33.4z M28.4,31.7c-0.6-0.5-1.2-0.3-1.9,0.5l-1.4,1.7l1.8,1.5l1.4-1.7C29,32.9,29,32.3,28.4,31.7z" id="svg_20"/>
	<path display="none" fill="#008832" d="M34,27.2l-2.9,2.3l0.5,1.9L30.8,32L29,24.5l0.8-0.6l6.7,3.5L35.7,28L34,27.2z M33.2,26.8   L30,25l0.9,3.6L33.2,26.8z" id="svg_21"/>
	<path display="none" fill="#008832" d="M39.6,18.1l3,6.3l-0.9,0.4L40.4,22l-3.6,1.7l1.3,2.8L37.2,27l-3-6.3l0.9-0.4l1.3,2.7   l3.6-1.7l-1.3-2.7L39.6,18.1z" id="svg_22"/>
	<path display="none" fill="#008832" d="M48.5,15.8l1.4,6.8l-1,0.2l-0.6-3l-3.9,0.8l0.6,3l-1,0.2L42.6,17l1-0.2l0.6,2.9l3.9-0.8   L47.5,16L48.5,15.8z" id="svg_23"/>
	<path display="none" fill="#008832" d="M57.3,20.3c-0.1,1.5-1.1,2.3-2.8,2.2l-2.8-0.1l0.3-7h1l-0.1,2.4l2,0.1   C56.5,18,57.4,18.8,57.3,20.3z M56.3,20.2c0-1-0.6-1.5-1.7-1.5l-1.8-0.1l-0.1,3l1.8,0.1C55.6,21.8,56.3,21.3,56.3,20.2z M58.6,15.7   h1l-0.3,7h-1L58.6,15.7z" id="svg_24"/>
	<path display="none" fill="#008832" d="M63,16.4l0.9,0.3l-1.6,5.1l5.4-3.9l0.9,0.3l-2,6.7l-0.9-0.3l1.6-5.1l-5.4,3.9L61,23.1   L63,16.4z M64.7,15l0.7,0.2c-0.1,0.5,0.1,0.9,0.7,1.1c0.6,0.2,1,0,1.2-0.5L68,16c-0.3,0.8-1,1.1-2,0.8C64.9,16.5,64.5,15.9,64.7,15   z" id="svg_25"/>
	<path fill="#008832" d="M20.3,40.8c-1.8-1-2.4-3-1.3-4.9c0.5-0.9,1.3-1.5,2.3-1.8l0.3,0.9c-0.8,0.2-1.4,0.6-1.7,1.2   c-0.8,1.4-0.4,2.9,1,3.6c1.4,0.8,2.9,0.3,3.7-1.1c0.4-0.6,0.5-1.3,0.2-2.1l0.9-0.3c0.3,0.9,0.2,1.9-0.4,2.8   C24.2,41.1,22,41.7,20.3,40.8z" id="svg_26"/>
	<path fill="#008832" d="M27.3,29.1c1.2,1,1.1,2.4-0.1,3.7l-1.1,1.3l1.6,1.4l-0.6,0.8l-5.3-4.5l1.7-2C24.8,28.4,26.1,28,27.3,29.1z    M26.7,29.8c-0.8-0.6-1.6-0.5-2.5,0.4l-1.1,1.3l2.4,2l1.1-1.3C27.4,31.4,27.4,30.4,26.7,29.8z" id="svg_27"/>
	<path fill="#008832" d="M29,28.8c-1.2-1.6-0.9-3.7,0.9-5c1.7-1.2,3.8-1,5.1,0.6c1.2,1.6,0.9,3.7-0.9,5C32.5,30.7,30.3,30.4,29,28.8   z M34.2,25.1c-0.9-1.2-2.5-1.4-3.8-0.5c-1.2,0.9-1.5,2.5-0.6,3.8c0.9,1.2,2.5,1.4,3.8,0.5C34.9,27.8,35.1,26.3,34.2,25.1z" id="svg_28"/>
	<path fill="#008832" d="M39.3,23l-1.4,0.6l1.2,2.8l-0.9,0.4l-2.8-6.3l0.9-0.4l1.2,2.7l1.4-0.6l0.8-3.6l1-0.4l-0.9,4.1l3.9,2.2   l-1.2,0.3L39.3,23z" id="svg_29"/>
	<path fill="#008832" d="M45.9,20.2c-0.3-2,1.1-3.7,3.2-4c1.1-0.2,2,0,2.8,0.7l-0.5,0.7c-0.6-0.5-1.3-0.6-2-0.5   c-1.6,0.2-2.6,1.5-2.4,3c0.2,1.5,1.5,2.5,3.1,2.3c0.8-0.1,1.4-0.4,1.8-1.1l0.7,0.5c-0.5,0.7-1.4,1.3-2.5,1.4   C48,23.5,46.2,22.2,45.9,20.2z" id="svg_30"/>
	<path fill="#008832" d="M59.7,16.2l-0.4,6.9l-1,0l0.4-6.1l-3.1-0.1l-0.2,2c-0.3,2.7-0.8,4.1-2.2,4c-0.2,0-0.4-0.1-0.6-0.2l0.1-0.9   c0.1,0,0.2,0.1,0.3,0.1c0.9,0,1.2-0.9,1.5-3l0.3-2.8L59.7,16.2z" id="svg_31"/>
	<path fill="#008832" d="M68.4,18.4L63.9,23c-0.7,0.8-1.5,1-2.2,0.8c-0.3-0.1-0.6-0.3-0.8-0.4l0.5-0.6c0.2,0.2,0.4,0.3,0.6,0.3   c0.4,0.1,0.8,0,1.3-0.4l0.2-0.2L62,16.5l1,0.3l1,4.8l3.4-3.6L68.4,18.4z" id="svg_32"/>
	<path fill="#008832" d="M73.7,25.3l-1.2-0.6L71,27.3l-0.8-0.4l1.5-2.6l-1.2-0.6l-3.2,1.7l-1-0.5l3.8-2l-0.2-3.9l0.9,0.5l0.2,3.5   l1.1,0.5l1.5-2.6l0.8,0.4L73,23.9l1.2,0.6l3.1-1.7l0.9,0.5l-3.5,1.9l0.2,4.2l-1-0.5L73.7,25.3z" id="svg_33"/>
	<path fill="#008832" d="M80.1,25l3.8,3.5l-0.5,0.6l-3.1-2.9l-1.4,1.4l1.6,1.5c1.2,1.1,1.4,2.2,0.5,3.2c-0.9,1-2.1,0.9-3.4-0.3   l-2.2-2L80.1,25z M78,31.5c0.9,0.7,1.6,0.9,2.1,0.2c0.5-0.6,0.4-1.3-0.4-2.1l-1.4-1.3l-1.9,1.8L78,31.5z" id="svg_34"/>
	<path fill="#008832" d="M89.7,36.6l0.6,0.9l-5.8,3.8l-0.6-0.9L89.7,36.6z M85.3,38.1c-1.3,0.8-2.5,0.4-3.5-1l-1.6-2.4l5.8-3.8   l0.6,0.9l-2,1.3l1.1,1.7C86.6,36.1,86.5,37.3,85.3,38.1z M84.7,37.3c0.9-0.6,0.9-1.3,0.2-2.2l-1-1.5l-2.5,1.6l1,1.5   C83.1,37.6,83.9,37.8,84.7,37.3z" id="svg_35"/>
	<path display="none" fill="#008832" d="M54,93.9c-3.9,0-7.8-0.6-11.6-1.9c-0.2-0.1-0.3-0.3-0.3-0.6c0.1-0.2,0.3-0.4,0.6-0.3   c7.3,2.4,15.3,2.4,22.6,0c0.2-0.1,0.5,0,0.6,0.3s0,0.5-0.3,0.6C61.9,93.3,58,93.9,54,93.9z" id="svg_36"/>
	<g id="svg_37">
		<g id="svg_38">
			<path fill="#FFFFFF" d="M35.4,55.9c0.7,0.3,2.2,0.9,3.7,0.9c2,0,2.9-0.9,2.9-1.9c0-1.5-1.6-2.1-3.2-2.1h-1.5v-2.4h1.5     c1.3,0,2.8-0.4,2.8-1.7c0-0.9-0.8-1.5-2.4-1.5c-1.3,0-2.7,0.5-3.3,0.9l-0.8-2.5c1-0.6,2.9-1.1,5-1.1c3.4,0,5.3,1.6,5.3,3.6     c0,1.5-1,2.8-2.9,3.4l0,0c1.9,0.3,3.5,1.6,3.5,3.6c0,2.6-2.5,4.4-6.6,4.4c-2.1,0-3.8-0.5-4.8-1L35.4,55.9z" id="svg_39"/>
			<path fill="#FFFFFF" d="M60.3,51.9c0,4.5-2,7.6-6.1,7.6c-4.2,0-6-3.4-6-7.5c0-4.2,2-7.6,6.1-7.6C58.6,44.4,60.3,47.9,60.3,51.9z      M52,52c0,3.3,0.9,4.9,2.3,4.9c1.5,0,2.3-1.7,2.3-5c0-3.2-0.8-4.9-2.3-4.9C52.9,47,52,48.6,52,52z" id="svg_40"/>
			<path fill="#FFFFFF" d="M74.1,51.9c0,4.5-2,7.6-6.1,7.6c-4.2,0-6-3.4-6-7.5c0-4.2,2-7.6,6.1-7.6C72.4,44.4,74.1,47.9,74.1,51.9z      M65.7,52c0,3.3,0.9,4.9,2.3,4.9c1.5,0,2.3-1.7,2.3-5c0-3.2-0.8-4.9-2.3-4.9C66.7,47,65.7,48.6,65.7,52z" id="svg_41"/>
		</g>
	</g>
	<path display="none" fill="#FFFFFF" d="M48.4,51.8c0-5,2.5-8,5.9-8c3.5,0,5.9,2.9,5.9,8s-2.5,8-5.9,8S48.4,56.9,48.4,51.8z    M55.8,51.8c0-2.9-0.6-3.8-1.5-3.8s-1.5,0.9-1.5,3.8s0.6,3.8,1.5,3.8C55.2,55.7,55.8,54.8,55.8,51.8z" id="svg_42"/>
	<path fill="none" stroke="#008832" stroke-miterlimit="10" d="M45.7,24.6" id="svg_43"/>
	<path fill="none" stroke="#008832" stroke-miterlimit="10" d="M65.4,29" id="svg_44"/>
	<path fill="none" stroke="#008832" stroke-miterlimit="10" d="M70.5,30.2" id="svg_45"/>
	<path fill="none" stroke="#008832" stroke-miterlimit="10" d="M21.3,41.8" id="svg_46"/>
	<path fill="none" stroke="#008832" stroke-miterlimit="10" d="M89.5,44.4c1.2,3.6,1.9,7.5,1.9,11.5C91.4,76,75.1,92.3,55,92.3   c-20.1,0-36.4-16.3-36.4-36.4c0-4,0.7-7.9,1.9-11.5" id="svg_47"/>
	<path fill="none" stroke="#008832" stroke-miterlimit="10" d="M89.5,44.4" id="svg_48"/>
	<path fill="none" d="M21.3,41.8" id="svg_49"/>
	<path fill="none" stroke="#008832" stroke-miterlimit="10" d="M21.3,41.8" id="svg_50"/>
	<path fill="none" stroke="#008832" stroke-miterlimit="10" d="M21.3,41.8" id="svg_51"/>
</g></g></svg>