<svg xmlns="http://www.w3.org/2000/svg" width="16" height="12" viewBox="0 0 16 12" fill="none">
<path fill-rule="evenodd" clip-rule="evenodd" d="M15.1419 0.32901C15.3525 0.53994 15.4709 0.825885 15.4709 1.12401C15.4709 1.42213 15.3525 1.70807 15.1419 1.91901L7.26694 11.294C7.056 11.5046 6.77007 11.623 6.47194 11.623C6.17382 11.623 5.88787 11.5046 5.67694 11.294L0.801944 6.41901C0.603224 6.20574 0.495044 5.92368 0.500174 5.63222C0.505319 5.34076 0.623384 5.06269 0.829514 4.85656C1.03563 4.65045 1.31371 4.53238 1.60516 4.52724C1.89661 4.52209 2.17867 4.63029 2.39194 4.82901L6.47194 8.90901L13.5519 0.32901C13.7628 0.118335 14.0487 0 14.3469 0C14.645 0 14.931 0.118335 15.1419 0.32901Z" fill="#07A530"/>
</svg>