<svg xmlns="http://www.w3.org/2000/svg" width="42" height="42" viewBox="0 0 42 42" fill="none">
<path d="M20.9195 1.3125C20.4862 1.3125 20.053 1.45605 19.689 1.74573L18.7713 2.48145C15.7207 4.92188 12.0473 6.34973 8.15079 6.60864L5.77445 6.76758C4.69523 6.83936 3.87235 7.77502 3.94157 8.85168L4.39274 16.437C4.908 23.5814 8.16874 30.1029 13.5751 34.8018L19.6275 40.0697C19.9966 40.3876 20.458 40.5465 20.9195 40.5465C21.3835 40.5465 21.8449 40.3876 22.2115 40.0697L28.269 34.8018C33.6728 30.1029 36.9335 23.5789 37.4488 16.4268L37.8999 8.85425C37.9666 7.77502 37.1437 6.83936 36.0645 6.76758L33.6907 6.60864C29.7917 6.34973 26.1182 4.92188 23.0677 2.48145L22.1499 1.74573C21.7885 1.45605 21.3527 1.3125 20.9195 1.3125ZM20.9195 2.625C21.0656 2.625 21.2091 2.67371 21.3296 2.77112L22.2474 3.50684C25.5107 6.11646 29.4379 7.64172 33.6035 7.91858L35.9799 8.07751C36.3388 8.10059 36.6131 8.41333 36.59 8.77478L36.1388 16.3396C35.6723 22.8047 32.8396 28.7314 28.1382 33.1432V33.0996C28.1382 32.7382 27.846 32.4434 27.482 32.4434C27.1205 32.4434 26.8257 32.7382 26.8257 33.0996V34.3173L21.3501 39.0776C21.1066 39.2904 20.7349 39.2904 20.4888 39.0776L15.0132 34.3173V33.0996C15.0132 32.7382 14.721 32.4434 14.357 32.4434C13.9955 32.4434 13.7007 32.7382 13.7007 33.0996V33.1432C9.00187 28.7314 6.16666 22.8073 5.70011 16.3473L5.24894 8.77222C5.22843 8.41333 5.50272 8.10059 5.86161 8.07751L8.23539 7.91858C12.4036 7.64172 16.3308 6.11646 19.5942 3.50684L20.5093 2.77112C20.6324 2.67371 20.7759 2.625 20.9195 2.625ZM20.9195 4.50659C20.658 4.50659 20.3914 4.5835 20.1684 4.74243L18.4816 5.92163C15.6336 7.91345 12.2985 9.08752 8.83524 9.3208L8.40714 9.349C8.04569 9.37207 7.7714 9.68481 7.79447 10.0463C7.81754 10.3923 8.10721 10.6589 8.45072 10.6589C8.4661 10.6589 8.47892 10.6589 8.4943 10.6564L8.91984 10.6307C12.6241 10.3821 16.1899 9.12598 19.2353 6.99573L20.9195 5.81653L22.6062 6.99573C24.4237 8.26978 26.4284 9.23364 28.5638 9.85657C28.9124 9.95911 29.2764 9.75916 29.3764 9.41309C29.4789 9.06445 29.279 8.70044 28.9329 8.5979C26.9359 8.01343 25.062 7.11365 23.3573 5.92163L21.6731 4.74243C21.4475 4.5835 21.1835 4.50659 20.9195 4.50659ZM31.5092 9.1593C31.1477 9.10291 30.8171 9.35669 30.7632 9.71301C30.7119 10.0719 30.958 10.4077 31.3169 10.459C31.845 10.5359 32.3833 10.5948 32.9191 10.6307L33.3062 10.6564C33.3216 10.6564 33.3369 10.6564 33.3523 10.6564C33.6933 10.6564 33.9829 10.3923 34.0035 10.0463C34.0291 9.68225 33.7548 9.36951 33.3959 9.34387L33.0063 9.3208C32.5064 9.28491 32.0014 9.23364 31.5092 9.1593ZM29.4507 14.7246C29.2815 14.7246 29.1149 14.7887 28.9867 14.9194L19.607 24.2966L14.8235 19.5106C14.5646 19.2543 14.1519 19.2543 13.893 19.5106C13.6366 19.767 13.6366 20.1823 13.893 20.4386L19.143 25.6886C19.2712 25.8168 19.4403 25.8809 19.607 25.8809C19.7762 25.8809 19.9453 25.8168 20.0735 25.6886L29.9173 15.8448C30.1736 15.5885 30.1736 15.1732 29.9173 14.9169C29.7865 14.7887 29.6199 14.7246 29.4507 14.7246ZM17.6382 32.4434C17.2768 32.4434 16.982 32.7382 16.982 33.0996V34.4121C16.982 34.7761 17.2768 35.0684 17.6382 35.0684C18.0022 35.0684 18.2945 34.7761 18.2945 34.4121V33.0996C18.2945 32.7382 18.0022 32.4434 17.6382 32.4434ZM20.9195 32.4434C20.558 32.4434 20.2632 32.7382 20.2632 33.0996V34.4121C20.2632 34.7761 20.558 35.0684 20.9195 35.0684C21.2835 35.0684 21.5757 34.7761 21.5757 34.4121V33.0996C21.5757 32.7382 21.2835 32.4434 20.9195 32.4434ZM24.2007 32.4434C23.8393 32.4434 23.5445 32.7382 23.5445 33.0996V34.4121C23.5445 34.7761 23.8393 35.0684 24.2007 35.0684C24.5647 35.0684 24.857 34.7761 24.857 34.4121V33.0996C24.857 32.7382 24.5647 32.4434 24.2007 32.4434Z" fill="#FFDF00"/>
</svg>