<svg xmlns="http://www.w3.org/2000/svg" width="43" height="43" viewBox="0 0 43 43" fill="none">
<circle cx="21.5" cy="21.5" r="21.5" fill="#2F89CE"/>
<path d="M10.0518 21.9021L14.9948 23.7453L16.9217 29.9449C17.0054 30.3638 17.5081 30.4475 17.8432 30.1962L20.6079 27.9342C20.8593 27.6829 21.2782 27.6829 21.6133 27.9342L26.5562 31.5367C26.8913 31.788 27.394 31.6204 27.4778 31.2015L31.164 13.608C31.2478 13.1892 30.8289 12.7703 30.41 12.9378L10.0518 20.813C9.54914 20.9806 9.54914 21.7346 10.0518 21.9021ZM16.6703 22.8237L26.3886 16.8754C26.5562 16.7916 26.7238 17.043 26.5562 17.1268L18.5972 24.583C18.3459 24.8344 18.0946 25.1695 18.0946 25.5884L17.8432 27.5991C17.8432 27.8504 17.4243 27.9342 17.3406 27.5991L16.3352 23.9128C16.0839 23.4939 16.2514 22.9912 16.6703 22.8237Z" fill="white"/>
</svg>