<svg xmlns="http://www.w3.org/2000/svg" width="30" height="30" viewBox="0 0 30 30" fill="none">
<path d="M14.5312 0.9375C7.03491 0.9375 0.9375 7.03491 0.9375 14.5312C0.9375 22.0276 7.03491 28.125 14.5312 28.125C22.0276 28.125 28.125 22.0276 28.125 14.5312C28.125 7.03491 22.0276 0.9375 14.5312 0.9375ZM14.5312 1.875C21.5094 1.875 27.1875 7.5531 27.1875 14.5312C27.1875 21.5094 21.5094 27.1875 14.5312 27.1875C7.5531 27.1875 1.875 21.5094 1.875 14.5312C1.875 7.5531 7.5531 1.875 14.5312 1.875ZM14.5312 3.75C8.58582 3.75 3.75 8.58582 3.75 14.5312C3.75 20.4767 8.58582 25.3125 14.5312 25.3125C20.4767 25.3125 25.3125 20.4767 25.3125 14.5312C25.3125 11.2006 23.8092 8.10974 21.1871 6.0498C20.9839 5.8905 20.6909 5.92529 20.5298 6.12854C20.3705 6.33179 20.4053 6.62659 20.6085 6.78772C23.0017 8.66821 24.375 11.4917 24.375 14.5312C24.375 19.9585 19.9585 24.375 14.5312 24.375C9.104 24.375 4.6875 19.9585 4.6875 14.5312C4.6875 9.104 9.104 4.6875 14.5312 4.6875C15.0128 4.6875 15.4962 4.72229 15.9668 4.79187C16.225 4.83032 16.463 4.65271 16.4996 4.39636C16.5363 4.14001 16.3605 3.90198 16.1041 3.86353C15.5878 3.78845 15.0586 3.75 14.5312 3.75ZM18.0615 4.37988C17.8802 4.38904 17.7118 4.50439 17.644 4.6875C17.5562 4.9292 17.6807 5.19836 17.9242 5.28809C18.2904 5.42175 18.6548 5.58289 19.0063 5.76233C19.0759 5.79712 19.1492 5.8136 19.2206 5.8136C19.3909 5.8136 19.5557 5.72021 19.6381 5.55725C19.7552 5.32654 19.6637 5.04456 19.433 4.92737C19.0485 4.72961 18.6493 4.55566 18.2465 4.40735C18.186 4.38538 18.1238 4.37622 18.0615 4.37988ZM14.5312 6.5625C14.2731 6.5625 14.0625 6.77307 14.0625 7.03125V7.96875C14.0625 8.22693 14.2731 8.4375 14.5312 8.4375C14.7894 8.4375 15 8.22693 15 7.96875V7.03125C15 6.77307 14.7894 6.5625 14.5312 6.5625ZM17.3346 7.10999C17.1515 7.11182 16.9794 7.22168 16.9061 7.40295L16.5546 8.27087C16.4575 8.51074 16.5729 8.7854 16.8146 8.88245C16.8713 8.90442 16.9318 8.91541 16.9904 8.91541C17.1753 8.91541 17.3511 8.80554 17.4243 8.62244L17.7759 7.75269C17.8729 7.51282 17.7557 7.23999 17.5159 7.14294C17.4554 7.11914 17.395 7.10815 17.3346 7.10999ZM19.7333 8.66638C19.6124 8.67004 19.4952 8.71765 19.4037 8.81104L18.7518 9.48486C18.5724 9.67163 18.5779 9.96826 18.7646 10.1477C18.8544 10.2356 18.9716 10.2795 19.0887 10.2795C19.2133 10.2795 19.3341 10.2301 19.4257 10.1367L20.0775 9.46289C20.2588 9.27612 20.2533 8.97949 20.0684 8.79822C19.975 8.7085 19.8541 8.66455 19.7333 8.66638ZM14.5312 9.375C14.2731 9.375 14.0625 9.58557 14.0625 9.84375V13.7238C13.7842 13.8867 13.5938 14.1852 13.5938 14.5312C13.5938 15.0476 14.0149 15.4688 14.5312 15.4688C14.6155 15.4688 14.6942 15.4541 14.7711 15.434L17.7155 18.3783C17.807 18.4698 17.926 18.5156 18.0469 18.5156C18.1677 18.5156 18.2867 18.4698 18.3783 18.3783C18.5614 18.1952 18.5614 17.8986 18.3783 17.7155L15.434 14.7711C15.4541 14.6942 15.4688 14.6155 15.4688 14.5312C15.4688 14.1852 15.2783 13.8867 15 13.7238V9.84375C15 9.58557 14.7894 9.375 14.5312 9.375ZM21.3739 11.012C21.3135 11.0138 21.2512 11.0266 21.1926 11.0522L20.3357 11.4331C20.0995 11.5393 19.9933 11.8158 20.0977 12.0538C20.1764 12.2278 20.3467 12.3322 20.5261 12.3322C20.5902 12.3322 20.6543 12.3175 20.7166 12.29L21.5735 11.9092C21.8097 11.803 21.9159 11.5265 21.8115 11.2903C21.731 11.1127 21.557 11.0083 21.3739 11.012ZM7.03125 14.0625C6.77307 14.0625 6.5625 14.2731 6.5625 14.5312C6.5625 14.7894 6.77307 15 7.03125 15H7.96875C8.22693 15 8.4375 14.7894 8.4375 14.5312C8.4375 14.2731 8.22693 14.0625 7.96875 14.0625H7.03125ZM21.0938 14.0625C20.8356 14.0625 20.625 14.2731 20.625 14.5312C20.625 14.7894 20.8356 15 21.0938 15H22.0312C22.2894 15 22.5 14.7894 22.5 14.5312C22.5 14.2731 22.2894 14.0625 22.0312 14.0625H21.0938ZM20.6085 16.5216C20.4254 16.5234 20.2533 16.6333 20.1801 16.8146C20.0848 17.0544 20.2002 17.3273 20.4401 17.4243L21.3098 17.7759C21.3666 17.7997 21.427 17.8107 21.4838 17.8107C21.6705 17.8107 21.8463 17.699 21.9196 17.5159C22.0166 17.276 21.9012 17.0032 21.6595 16.9061L20.7916 16.5546C20.7312 16.5308 20.6689 16.5198 20.6085 16.5216ZM19.2444 18.62C19.1254 18.6237 19.0045 18.6713 18.9148 18.7646C18.8434 18.8379 18.8104 18.9313 18.7958 19.0247C18.717 19.1968 18.7445 19.4073 18.8873 19.5502L19.5026 20.1654C19.5941 20.257 19.7131 20.3027 19.834 20.3027C19.9548 20.3027 20.0739 20.257 20.1654 20.1654C20.1819 20.1489 20.191 20.1251 20.2057 20.1068C20.224 20.0922 20.246 20.0848 20.2643 20.0665C20.4437 19.8798 20.4382 19.5831 20.2515 19.4037L19.5776 18.7518C19.4843 18.6621 19.3634 18.6182 19.2444 18.62ZM14.5312 20.625C14.2731 20.625 14.0625 20.8356 14.0625 21.0938V22.0312C14.0625 22.2894 14.2731 22.5 14.5312 22.5C14.7894 22.5 15 22.2894 15 22.0312V21.0938C15 20.8356 14.7894 20.625 14.5312 20.625Z" fill="#06892E"/>
</svg>