<svg xmlns="http://www.w3.org/2000/svg" width="30" height="30" viewBox="0 0 30 30" fill="none">
<path d="M14.9425 0.9375C14.633 0.9375 14.3236 1.04004 14.0636 1.24695L13.4081 1.77246C11.2291 3.51562 8.6052 4.53552 5.822 4.72046L4.12461 4.83398C3.35373 4.88525 2.76597 5.55359 2.8154 6.32263L3.13767 11.7407C3.50571 16.8439 5.83481 21.5021 9.69651 24.8584L14.0196 28.6212C14.2833 28.8483 14.6129 28.9618 14.9425 28.9618C15.2739 28.9618 15.6035 28.8483 15.8653 28.6212L20.1921 24.8584C24.052 21.5021 26.3811 16.842 26.7491 11.7334L27.0714 6.32446C27.119 5.55359 26.5312 4.88525 25.7603 4.83398L24.0648 4.72046C21.2798 4.53552 18.6559 3.51562 16.4769 1.77246L15.8214 1.24695C15.5632 1.04004 15.2519 0.9375 14.9425 0.9375ZM14.9425 1.875C15.0468 1.875 15.1494 1.90979 15.2354 1.97937L15.891 2.50488C18.2219 4.3689 21.0271 5.45837 24.0025 5.65613L25.6999 5.76965C25.9563 5.78613 26.1522 6.00952 26.1357 6.2677L25.8134 11.6711C25.4802 16.2891 23.4569 20.5225 20.0987 23.6737V23.6426C20.0987 23.3844 19.89 23.1738 19.63 23.1738C19.3718 23.1738 19.1612 23.3844 19.1612 23.6426V24.5123L15.2501 27.9126C15.0761 28.0646 14.8106 28.0646 14.6349 27.9126L10.7237 24.5123V23.6426C10.7237 23.3844 10.515 23.1738 10.255 23.1738C9.9968 23.1738 9.78623 23.3844 9.78623 23.6426V23.6737C6.42991 20.5225 4.40476 16.2909 4.07151 11.6766L3.74924 6.26587C3.73459 6.00952 3.93052 5.78613 4.18686 5.76965L5.88242 5.65613C8.85972 5.45837 11.6649 4.3689 13.9958 2.50488L14.6495 1.97937C14.7374 1.90979 14.8399 1.875 14.9425 1.875ZM14.9425 3.21899C14.7557 3.21899 14.5653 3.27393 14.406 3.38745L13.2011 4.22974C11.1668 5.65247 8.78464 6.49109 6.31089 6.65771L6.0051 6.67786C5.74692 6.69434 5.551 6.91772 5.56748 7.1759C5.58396 7.4231 5.79087 7.61353 6.03623 7.61353C6.04722 7.61353 6.05637 7.61353 6.06736 7.61169L6.37131 7.59338C9.01719 7.41577 11.5642 6.51855 13.7395 4.99695L14.9425 4.15466L16.1473 4.99695C17.4455 5.90698 18.8774 6.59546 20.4027 7.04041C20.6517 7.11365 20.9117 6.97083 20.9831 6.72363C21.0564 6.47461 20.9135 6.2146 20.6664 6.14136C19.24 5.72388 17.9015 5.08118 16.6838 4.22974L15.4808 3.38745C15.3197 3.27393 15.1311 3.21899 14.9425 3.21899ZM22.5066 6.54236C22.2484 6.50208 22.0122 6.68335 21.9737 6.93787C21.9371 7.19421 22.1129 7.43408 22.3692 7.4707C22.7464 7.52563 23.131 7.56775 23.5136 7.59338L23.7901 7.61169C23.8011 7.61169 23.8121 7.61169 23.8231 7.61169C24.0666 7.61169 24.2735 7.4231 24.2882 7.1759C24.3065 6.91589 24.1106 6.6925 23.8542 6.67419L23.5759 6.65771C23.2188 6.63208 22.8581 6.59546 22.5066 6.54236ZM21.0362 10.5176C20.9154 10.5176 20.7964 10.5634 20.7048 10.6567L14.005 17.3547L10.5882 13.9362C10.4033 13.7531 10.1085 13.7531 9.92356 13.9362C9.74045 14.1193 9.74045 14.4159 9.92356 14.599L13.6736 18.349C13.7651 18.4406 13.886 18.4863 14.005 18.4863C14.1258 18.4863 14.2467 18.4406 14.3382 18.349L21.3695 11.3177C21.5526 11.1346 21.5526 10.838 21.3695 10.6549C21.2761 10.5634 21.1571 10.5176 21.0362 10.5176ZM12.5987 23.1738C12.3406 23.1738 12.13 23.3844 12.13 23.6426V24.5801C12.13 24.8401 12.3406 25.0488 12.5987 25.0488C12.8587 25.0488 13.0675 24.8401 13.0675 24.5801V23.6426C13.0675 23.3844 12.8587 23.1738 12.5987 23.1738ZM14.9425 23.1738C14.6843 23.1738 14.4737 23.3844 14.4737 23.6426V24.5801C14.4737 24.8401 14.6843 25.0488 14.9425 25.0488C15.2025 25.0488 15.4112 24.8401 15.4112 24.5801V23.6426C15.4112 23.3844 15.2025 23.1738 14.9425 23.1738ZM17.2862 23.1738C17.0281 23.1738 16.8175 23.3844 16.8175 23.6426V24.5801C16.8175 24.8401 17.0281 25.0488 17.2862 25.0488C17.5462 25.0488 17.755 24.8401 17.755 24.5801V23.6426C17.755 23.3844 17.5462 23.1738 17.2862 23.1738Z" fill="#06892E"/>
</svg>