<svg xmlns="http://www.w3.org/2000/svg" width="30" height="30" viewBox="0 0 30 30" fill="none">
<path d="M23.9724 1.92261C21.8539 1.89148 19.4827 3.02307 18.0911 4.41467C17.5619 4.94385 17.2323 5.45471 17.0437 5.96192C16.3754 5.46387 15.6301 5.06653 14.6945 4.96399L11.5139 4.6106L10.1352 4.41467C9.41005 4.3103 8.66665 4.5575 8.14663 5.07568L0.769307 12.4512C0.0899856 13.1323 -0.105937 14.1815 0.285909 15.0604L1.91555 18.728C2.27443 19.5355 2.79079 20.2405 3.45729 20.8282L4.99172 22.1539L4.82692 22.3169C4.20803 22.9358 3.86745 23.7598 3.86745 24.6368C3.86745 25.5139 4.20803 26.3379 4.82692 26.9586C5.46779 27.5977 6.30642 27.9181 7.1487 27.9181C7.98916 27.9181 8.82778 27.5977 9.46865 26.9586L9.97219 26.4532L11.2814 27.5848C11.6897 27.9419 12.2006 28.1177 12.7078 28.1177C13.2663 28.1177 13.8229 27.9071 14.244 27.486C14.6505 27.0776 14.8758 26.5356 14.8758 25.957C14.8758 25.8765 14.8703 25.7941 14.8611 25.7135C15.6521 26.0028 16.5676 25.8234 17.1902 25.2026C17.6406 24.7522 17.8549 24.1553 17.8347 23.5638C18.6898 24.0582 19.7903 23.9264 20.5044 23.2123C21.0629 22.6556 21.2606 21.8701 21.0958 21.1523C21.8173 21.3171 22.6028 21.1139 23.1576 20.5609L23.2693 20.4492C24.0695 19.6472 24.1153 18.3508 23.3737 17.4957L21.3119 15.1154L22.0242 14.4012C24.0054 15.0238 25.5856 15.4816 27.3709 13.6945C29.0774 11.9879 30.3976 8.79822 29.6487 6.41785C29.6011 6.26221 29.4729 6.14319 29.3136 6.10474C29.1543 6.06445 28.9859 6.11206 28.8705 6.22742L25.9445 9.15344C25.8273 9.27063 25.6533 9.31641 25.494 9.27429L24.9813 9.13696C23.8516 8.83484 22.9635 7.94495 22.6614 6.81702L22.5222 6.30432C22.4801 6.14319 22.5259 5.96924 22.6449 5.85205L25.5746 2.92053C25.69 2.80518 25.7376 2.63672 25.6991 2.47925C25.6607 2.31995 25.5416 2.19177 25.386 2.14234C24.9392 1.99951 24.4632 1.92993 23.9724 1.92261ZM23.9303 2.8656C24.0512 2.8656 24.1702 2.87109 24.2874 2.88025L21.9802 5.18738C21.625 5.54077 21.4877 6.06262 21.6159 6.54602L21.7532 7.05872C22.1432 8.51074 23.2858 9.65332 24.736 10.0415L25.2487 10.1807C25.7339 10.3107 26.2539 10.1697 26.6091 9.81445L28.9071 7.51648C29.0518 9.39148 27.9953 11.7444 26.708 13.0316C25.2908 14.447 24.194 14.1028 22.2 13.4747L22.0333 13.4216C21.8667 13.3704 21.6836 13.4143 21.5609 13.537L20.6948 14.4049L17.6168 10.8527L18.2467 10.2228C18.3712 10.1001 18.4152 9.91699 18.3621 9.75037L18.3108 9.58374C17.6809 7.58972 17.3349 6.49292 18.7521 5.07568C19.9643 3.86536 22.1176 2.86194 23.9303 2.8656ZM9.67556 5.33386C9.78176 5.32288 9.89162 5.32654 10.0015 5.34119L11.3949 5.54077C11.3967 5.54077 11.3986 5.53894 11.4004 5.53894C11.4041 5.54077 11.4059 5.5426 11.4096 5.5426L14.5901 5.89417C15.4763 5.99304 16.1557 6.427 16.8331 6.9928C16.7965 7.86438 17.0675 8.7616 17.3825 9.76135L16.9998 10.1422L15.7913 8.74695C15.6228 8.55103 15.3262 8.53089 15.1303 8.70117C14.9343 8.86963 14.9142 9.16626 15.0827 9.36035L22.6651 18.1091C23.0862 18.5944 23.0606 19.3304 22.6046 19.7845L22.4929 19.8981C22.0388 20.3522 21.3156 20.3979 20.8084 20.0024L19.0414 18.6273C18.8455 18.4753 18.5653 18.501 18.4024 18.6877C18.2376 18.8727 18.2467 19.1547 18.4207 19.3286L19.8416 20.7495C20.3378 21.2457 20.3378 22.0532 19.8416 22.5513C19.3875 23.0035 18.6642 23.0493 18.157 22.6538L16.39 21.2787C16.1941 21.1267 15.914 21.1523 15.7492 21.3391C15.5862 21.524 15.5954 21.806 15.7693 21.98L16.5255 22.7362C17.0236 23.2343 17.0236 24.0417 16.5255 24.538C16.0733 24.9921 15.3482 25.036 14.8428 24.6442L13.074 23.269C12.8799 23.1152 12.5998 23.1409 12.435 23.3276C12.272 23.5126 12.2793 23.7946 12.4551 23.9703L13.5794 25.0928C13.8101 25.3235 13.9383 25.6311 13.9383 25.957C13.9383 26.2848 13.8101 26.5924 13.5794 26.8231C13.1234 27.2791 12.3837 27.3047 11.8966 26.8781L4.07253 20.1215C3.51223 19.6271 3.07644 19.032 2.77248 18.349L1.14284 14.6796C0.908467 14.1522 1.02565 13.5242 1.43215 13.1158L8.80947 5.74036C9.04201 5.50598 9.35146 5.36499 9.67556 5.33386ZM19.7464 8.2544C19.6273 8.2544 19.5083 8.30017 19.4168 8.39172C19.2318 8.57483 19.2318 8.87146 19.4168 9.05457L22.7291 12.3688C22.8207 12.4603 22.9415 12.5061 23.0624 12.5061C23.1814 12.5061 23.3023 12.4603 23.3938 12.3688C23.5769 12.1857 23.5769 11.889 23.3938 11.7059L20.0778 8.39172C19.9862 8.30017 19.8672 8.2544 19.7464 8.2544ZM16.7636 15.2142C16.6427 15.2142 16.5237 15.26 16.4321 15.3516C16.249 15.5365 16.249 15.8313 16.4321 16.0144L17.095 16.6772C17.1865 16.7688 17.3074 16.8146 17.4264 16.8146C17.5473 16.8146 17.6681 16.7688 17.7597 16.6772C17.9428 16.4941 17.9428 16.1975 17.7597 16.0144L17.095 15.3516C17.0034 15.26 16.8844 15.2142 16.7636 15.2142ZM15.1065 16.8732C14.9856 16.8732 14.8666 16.9171 14.775 17.0087C14.5919 17.1918 14.5919 17.4902 14.775 17.6733L15.4397 18.3344C15.5294 18.4259 15.6503 18.4717 15.7693 18.4717C15.8902 18.4717 16.011 18.4259 16.1007 18.3344C16.2857 18.1512 16.2857 17.8546 16.1007 17.6733L15.4379 17.0087C15.3463 16.9171 15.2273 16.8732 15.1065 16.8732ZM13.4494 18.5303C13.3303 18.5303 13.2095 18.5742 13.1179 18.6676C12.9348 18.8489 12.9348 19.1455 13.1179 19.3286L13.7808 19.9933C13.8723 20.083 13.9914 20.1288 14.1122 20.1288C14.2331 20.1288 14.3521 20.083 14.4436 19.9933C14.6267 19.8102 14.6267 19.5135 14.4436 19.3286L13.7808 18.6676C13.6892 18.5742 13.5684 18.5303 13.4494 18.5303ZM11.7923 20.1855C11.6732 20.1855 11.5524 20.2313 11.4608 20.3247C11.2777 20.5078 11.2777 20.8026 11.4608 20.9857L12.1237 21.6504C12.2152 21.7401 12.3342 21.7877 12.4551 21.7877C12.5759 21.7877 12.695 21.7401 12.7865 21.6504C12.9696 21.4655 12.9696 21.1707 12.7865 20.9857L12.1237 20.3247C12.0321 20.2313 11.9113 20.1855 11.7923 20.1855ZM10.1352 21.8427C10.0143 21.8427 9.89528 21.8884 9.8019 21.98C9.61879 22.1649 9.61879 22.4597 9.8019 22.6447L10.4666 23.3057C10.5563 23.3972 10.6771 23.4448 10.7962 23.4448C10.917 23.4448 11.0379 23.3972 11.1276 23.3057C11.3125 23.1226 11.3125 22.8278 11.1276 22.6447L10.4666 21.98C10.3732 21.8884 10.2542 21.8427 10.1352 21.8427ZM5.70217 22.7655L9.25991 25.8398L8.80397 26.2939C7.89028 27.2076 6.40346 27.2076 5.48977 26.2939C5.04665 25.8527 4.80312 25.2631 4.80312 24.6368C4.80312 24.0106 5.04665 23.4229 5.48977 22.9797L5.70217 22.7655Z" fill="#06892E"/>
</svg>