<svg xmlns="http://www.w3.org/2000/svg" width="42" height="42" viewBox="0 0 42 42" fill="none">
<circle cx="21" cy="21" r="21" fill="#48C95F"/>
<path d="M29.3232 12.6656C27.2488 10.5984 24.4829 9.45 21.5634 9.45C15.4939 9.45 10.5768 14.35 10.5768 20.3984C10.5768 22.3125 11.1146 24.2266 12.0366 25.8344L10.5 31.5L16.339 29.9687C17.9524 30.8109 19.7195 31.2703 21.5634 31.2703C27.6329 31.2703 32.55 26.3703 32.55 20.3219C32.4732 17.4891 31.3976 14.7328 29.3232 12.6656ZM26.8646 24.3031C26.6341 24.9156 25.5585 25.5281 25.0207 25.6047C24.5598 25.6812 23.9451 25.6812 23.3305 25.5281C22.9463 25.375 22.4085 25.2219 21.7939 24.9156C19.028 23.7672 17.261 21.0109 17.1073 20.7812C16.9537 20.6281 15.9549 19.3266 15.9549 17.9484C15.9549 16.5703 16.6463 15.9578 16.8768 15.6516C17.1073 15.3453 17.4146 15.3453 17.6451 15.3453C17.7988 15.3453 18.0293 15.3453 18.1829 15.3453C18.3366 15.3453 18.5671 15.2687 18.7976 15.8047C19.028 16.3406 19.5659 17.7187 19.6427 17.7953C19.7195 17.9484 19.7195 18.1016 19.6427 18.2547C19.5659 18.4078 19.489 18.5609 19.3354 18.7141C19.1817 18.8672 19.028 19.0969 18.9512 19.1734C18.7976 19.3266 18.6439 19.4797 18.7976 19.7094C18.9512 20.0156 19.489 20.8578 20.3341 21.6234C21.4098 22.5422 22.2549 22.8484 22.5622 23.0016C22.8695 23.1547 23.0232 23.0781 23.1768 22.925C23.3305 22.7719 23.8683 22.1594 24.022 21.8531C24.1756 21.5469 24.4061 21.6234 24.6366 21.7C24.8671 21.7766 26.25 22.4656 26.4805 22.6187C26.7878 22.7719 26.9415 22.8484 27.0183 22.925C27.0951 23.1547 27.0951 23.6906 26.8646 24.3031Z" fill="white"/>
</svg>