<svg xmlns="http://www.w3.org/2000/svg" width="30" height="30" viewBox="0 0 30 30" fill="none">
<path d="M9.92889 1.40625C9.36546 1.40625 8.90625 1.85522 8.90625 2.40601V3.28125H7.03125C6.77203 3.28125 6.5625 3.49125 6.5625 3.75V4.21875H2.8125C2.03719 4.21875 1.40625 4.84969 1.40625 5.625C1.40625 6.40031 2.03719 7.03125 2.8125 7.03125H6.5625V7.5C6.5625 7.75875 6.77203 7.96875 7.03125 7.96875H8.90625V9.48944C8.90625 9.61882 8.95988 9.74325 9.05457 9.83185L10.9296 11.5915C10.9408 11.6023 10.9526 11.6132 10.9653 11.6226C11.0796 11.7103 11.1853 11.8015 11.25 11.8634V12.6562C11.25 12.915 11.4595 13.125 11.7188 13.125H12.6562V20.625V22.5C12.6562 22.7588 12.8658 22.9688 13.125 22.9688H13.5938V27.5903C13.5938 27.6391 13.6021 27.6872 13.6166 27.7341L14.241 29.675C14.3034 29.8686 14.483 30 14.6869 30H15.3131C15.5161 30 15.6948 29.8699 15.7581 29.6777L16.3824 27.7734C16.3979 27.7261 16.4062 27.6766 16.4062 27.627V22.9688H16.875C17.1342 22.9688 17.3438 22.7588 17.3438 22.5V20.625V13.125H18.2812C18.5405 13.125 18.7504 12.915 18.7509 12.6562V11.8625C18.8198 11.7964 18.9326 11.7009 19.0338 11.6235C19.0469 11.6137 19.0596 11.6027 19.0714 11.5915L20.9464 9.83185C21.0406 9.74325 21.0938 9.61973 21.0938 9.49036V7.96875H22.9688C23.228 7.96875 23.4375 7.75875 23.4375 7.5V7.03125H27.1875C27.9628 7.03125 28.5938 6.40031 28.5938 5.625C28.5938 4.84969 27.9628 4.21875 27.1875 4.21875H23.4375V3.75C23.4375 3.49125 23.228 3.28125 22.9688 3.28125H21.0938V2.40601C21.0938 1.85522 20.635 1.40625 20.072 1.40625H9.92889ZM9.92889 2.34375H20.0711C20.1199 2.34375 20.1562 2.37694 20.1562 2.40601V9.28711L18.447 10.892C17.862 11.3397 17.8125 11.5458 17.8125 11.7188V12.1875H16.875H13.125H12.1875V11.7188C12.1875 11.505 12.0832 11.2998 11.554 10.892L9.84375 9.28711V7.5V3.75V2.40601C9.84375 2.37694 9.88014 2.34375 9.92889 2.34375ZM11.25 3.75C10.9913 3.75 10.7812 3.96 10.7812 4.21875V5.15625C10.7812 5.415 10.9913 5.625 11.25 5.625C11.5087 5.625 11.7188 5.415 11.7188 5.15625V4.21875C11.7188 3.96 11.5087 3.75 11.25 3.75ZM13.5938 3.75C13.335 3.75 13.125 3.96 13.125 4.21875V5.15625C13.125 5.415 13.335 5.625 13.5938 5.625C13.8525 5.625 14.0625 5.415 14.0625 5.15625V4.21875C14.0625 3.96 13.8525 3.75 13.5938 3.75ZM16.4062 3.75C16.1475 3.75 15.9375 3.96 15.9375 4.21875V5.15625C15.9375 5.415 16.1475 5.625 16.4062 5.625C16.665 5.625 16.875 5.415 16.875 5.15625V4.21875C16.875 3.96 16.665 3.75 16.4062 3.75ZM18.75 3.75C18.4912 3.75 18.2812 3.96 18.2812 4.21875V5.15625C18.2812 5.415 18.4912 5.625 18.75 5.625C19.0088 5.625 19.2188 5.415 19.2188 5.15625V4.21875C19.2188 3.96 19.0088 3.75 18.75 3.75ZM7.5 4.21875H8.90625V7.03125H7.5V6.5625V4.6875V4.21875ZM21.0938 4.21875H22.5V4.6875V6.5625V7.03125H21.0938V4.21875ZM2.8125 5.15625H6.5625V6.09375H2.8125C2.55375 6.09375 2.34375 5.88328 2.34375 5.625C2.34375 5.36672 2.55375 5.15625 2.8125 5.15625ZM23.4375 5.15625H27.1875C27.4463 5.15625 27.6562 5.36672 27.6562 5.625C27.6562 5.88328 27.4463 6.09375 27.1875 6.09375H23.4375V5.15625ZM13.5938 13.125H16.4062V20.1562H13.5938V13.125ZM13.5938 21.0938H16.4062V22.0312H15.9375H14.0625H13.5938V21.0938ZM14.5312 22.9688H15.4688V27.5519L15.0018 28.9764L14.5312 27.5162V22.9688Z" fill="#06892E"/>
</svg>