<svg xmlns="http://www.w3.org/2000/svg" width="42" height="38" viewBox="0 0 42 38" fill="none">
<path d="M33.5612 0.691689C30.5953 0.64811 27.2756 2.23234 25.3273 4.18058C24.5865 4.92142 24.1251 5.63664 23.861 6.34672C22.9253 5.64945 21.882 5.09318 20.5721 4.94962L16.1193 4.45487L14.189 4.18058C13.1739 4.03446 12.1331 4.38053 11.4051 5.106L1.07683 15.4317C0.125784 16.3853 -0.148508 17.8542 0.400077 19.0846L2.68157 24.2193C3.18401 25.3498 3.90691 26.3367 4.84002 27.1596L6.98821 29.0155L6.7575 29.2437C5.89104 30.1101 5.41424 31.2637 5.41424 32.4916C5.41424 33.7195 5.89104 34.8731 6.7575 35.7421C7.65472 36.6368 8.82879 37.0854 10.008 37.0854C11.1846 37.0854 12.3587 36.6368 13.2559 35.7421L13.9609 35.0346L15.7938 36.6188C16.3654 37.1187 17.0806 37.3648 17.7907 37.3648C18.5726 37.3648 19.3519 37.07 19.9415 36.4804C20.5105 35.9087 20.8259 35.1499 20.8259 34.3399C20.8259 34.2271 20.8182 34.1117 20.8054 33.9989C21.9128 34.404 23.1945 34.1527 24.0661 33.2837C24.6967 32.6531 24.9966 31.8174 24.9684 30.9894C26.1656 31.6816 27.7062 31.497 28.706 30.4972C29.4878 29.7179 29.7647 28.6182 29.534 27.6133C30.544 27.844 31.6437 27.5595 32.4205 26.7853L32.5768 26.6289C33.6971 25.5061 33.7612 23.6912 32.723 22.4941L29.8365 19.1615L30.8337 18.1618C33.6074 19.0334 35.8196 19.6742 38.319 17.1723C40.7082 14.7831 42.5564 10.3175 41.508 6.98502C41.4413 6.76713 41.2619 6.6005 41.0389 6.54667C40.8158 6.49027 40.58 6.55692 40.4185 6.71842L36.3221 10.8149C36.158 10.9789 35.9145 11.043 35.6915 10.984L34.9737 10.7918C33.392 10.3688 32.1487 9.12296 31.7258 7.54386L31.5309 6.82609C31.472 6.6005 31.5361 6.35697 31.7027 6.19291L35.8043 2.08878C35.9658 1.92728 36.0324 1.69144 35.9786 1.47099C35.9247 1.24796 35.7581 1.06852 35.5402 0.999306C34.9147 0.799355 34.2482 0.701943 33.5612 0.691689ZM33.5023 2.01188C33.6714 2.01188 33.8381 2.01957 34.0021 2.03239L30.7721 5.26237C30.2748 5.75712 30.0826 6.48771 30.262 7.16447L30.4543 7.88224C31.0003 9.91508 32.5999 11.5147 34.6302 12.0581L35.348 12.253C36.0273 12.435 36.7553 12.2376 37.2526 11.7403L40.4698 8.52311C40.6723 11.1481 39.1932 14.4422 37.391 16.2443C35.4069 18.2259 33.8714 17.7439 31.0798 16.8647L30.8465 16.7903C30.6132 16.7185 30.3569 16.7801 30.1851 16.9518L28.9726 18.1669L24.6634 13.1938L25.5452 12.3119C25.7195 12.1402 25.7811 11.8838 25.7067 11.6506L25.6349 11.4173C24.7531 8.62565 24.2686 7.09013 26.2527 5.106C27.9498 3.41154 30.9644 2.00675 33.5023 2.01188ZM13.5456 5.46745C13.6943 5.45206 13.8481 5.45719 14.0019 5.4777L15.9527 5.75712C15.9553 5.75712 15.9578 5.75456 15.9604 5.75456C15.9655 5.75712 15.9681 5.75968 15.9732 5.75968L20.426 6.25187C21.6667 6.3903 22.6177 6.99784 23.5662 7.78996C23.5149 9.01017 23.8943 10.2663 24.3353 11.6659L23.7995 12.1991L22.1076 10.2458C21.8718 9.97147 21.4565 9.94328 21.1822 10.1817C20.9079 10.4175 20.8797 10.8328 21.1155 11.1045L31.7309 23.3528C32.3205 24.0321 32.2846 25.0627 31.6463 25.6984L31.4899 25.8573C30.8542 26.4931 29.8416 26.5572 29.1315 26.0035L26.6578 24.0783C26.3835 23.8655 25.9913 23.9014 25.7631 24.1629C25.5324 24.4218 25.5452 24.8166 25.7887 25.0601L27.778 27.0494C28.4727 27.7441 28.4727 28.8746 27.778 29.5718C27.1423 30.205 26.1297 30.2691 25.4196 29.7154L22.9459 27.7902C22.6716 27.5774 22.2794 27.6133 22.0486 27.8748C21.8205 28.1337 21.8333 28.5285 22.0768 28.772L23.1356 29.8307C23.8328 30.528 23.8328 31.6585 23.1356 32.3532C22.5024 32.9889 21.4872 33.0505 20.7797 32.5019L18.3034 30.5767C18.0317 30.3614 17.6395 30.3973 17.4087 30.6587C17.1806 30.9176 17.1908 31.3124 17.4369 31.5585L19.0109 33.1299C19.3339 33.4529 19.5134 33.8836 19.5134 34.3399C19.5134 34.7987 19.3339 35.2294 19.0109 35.5524C18.3726 36.1907 17.337 36.2266 16.6551 35.6293L5.70135 26.1701C4.91692 25.4779 4.30681 24.6448 3.88128 23.6886L1.59978 18.5514C1.27166 17.8131 1.43572 16.9339 2.00481 16.3622L12.3331 6.03654C12.6586 5.70841 13.0918 5.51103 13.5456 5.46745ZM27.6447 9.55619C27.4781 9.55619 27.3115 9.62028 27.1833 9.74845C26.9244 10.0048 26.9244 10.4201 27.1833 10.6764L31.8206 15.3163C31.9488 15.4445 32.118 15.5086 32.2872 15.5086C32.4538 15.5086 32.623 15.4445 32.7512 15.3163C33.0075 15.06 33.0075 14.6447 32.7512 14.3883L28.1087 9.74845C27.9805 9.62028 27.8139 9.55619 27.6447 9.55619ZM23.4688 19.3C23.2996 19.3 23.133 19.3641 23.0048 19.4922C22.7485 19.7511 22.7485 20.1639 23.0048 20.4202L23.9328 21.3482C24.061 21.4764 24.2302 21.5404 24.3968 21.5404C24.566 21.5404 24.7352 21.4764 24.8633 21.3482C25.1197 21.0918 25.1197 20.6766 24.8633 20.4202L23.9328 19.4922C23.8046 19.3641 23.638 19.3 23.4688 19.3ZM21.1489 21.6225C20.9797 21.6225 20.813 21.684 20.6849 21.8122C20.4285 22.0685 20.4285 22.4864 20.6849 22.7427L21.6154 23.6681C21.741 23.7963 21.9102 23.8604 22.0768 23.8604C22.246 23.8604 22.4152 23.7963 22.5408 23.6681C22.7997 23.4118 22.7997 22.9965 22.5408 22.7427L21.6128 21.8122C21.4847 21.684 21.318 21.6225 21.1489 21.6225ZM18.8289 23.9424C18.6623 23.9424 18.4931 24.0039 18.3649 24.1347C18.1086 24.3885 18.1086 24.8038 18.3649 25.0601L19.2929 25.9906C19.4211 26.1163 19.5877 26.1803 19.7569 26.1803C19.9261 26.1803 20.0927 26.1163 20.2209 25.9906C20.4772 25.7343 20.4772 25.319 20.2209 25.0601L19.2929 24.1347C19.1647 24.0039 18.9955 23.9424 18.8289 23.9424ZM16.509 26.2598C16.3423 26.2598 16.1731 26.3239 16.045 26.4546C15.7886 26.711 15.7886 27.1237 16.045 27.38L16.973 28.3106C17.1011 28.4362 17.2678 28.5028 17.4369 28.5028C17.6061 28.5028 17.7728 28.4362 17.9009 28.3106C18.1573 28.0517 18.1573 27.639 17.9009 27.38L16.973 26.4546C16.8448 26.3239 16.6756 26.2598 16.509 26.2598ZM14.189 28.5798C14.0198 28.5798 13.8532 28.6438 13.7225 28.772C13.4661 29.0309 13.4661 29.4436 13.7225 29.7026L14.653 30.628C14.7786 30.7561 14.9478 30.8228 15.1144 30.8228C15.2836 30.8228 15.4528 30.7561 15.5784 30.628C15.8373 30.3716 15.8373 29.9589 15.5784 29.7026L14.653 28.772C14.5223 28.6438 14.3556 28.5798 14.189 28.5798ZM7.98284 29.8717L12.9637 34.1758L12.3254 34.8116C11.0462 36.0907 8.96465 36.0907 7.68548 34.8116C7.06512 34.1938 6.72417 33.3683 6.72417 32.4916C6.72417 31.6149 7.06512 30.792 7.68548 30.1717L7.98284 29.8717Z" fill="#FFDF00"/>
</svg>