<svg xmlns="http://www.w3.org/2000/svg" width="40" height="42" viewBox="0 0 40 42" fill="none">
<path d="M11.4688 0.536026C10.3844 0.536026 9.5 1.39112 9.5 2.43953V10.0535C9.5 11.102 10.3844 11.957 11.4688 11.957H17.375V23.3781H6.88782C6.25977 23.3781 5.66504 23.6705 5.2959 24.1613L0.940552 29.9511C0.530395 30.4964 0.3125 31.1433 0.3125 31.8174V36.7026C0.3125 37.751 1.1969 38.6061 2.28125 38.6061H4.25V39.2406C4.25 40.289 5.1344 41.1441 6.21875 41.1441C7.3031 41.1441 8.1875 40.289 8.1875 39.2406V38.6061H31.8125V39.2406C31.8125 40.289 32.6969 41.1441 33.7812 41.1441C34.8656 41.1441 35.75 40.289 35.75 39.2406V38.6061H37.7188C38.8031 38.6061 39.6875 37.751 39.6875 36.7026V31.8174C39.6875 31.1433 39.4696 30.4964 39.0594 29.9511L34.7041 24.1613C34.335 23.6705 33.7402 23.3781 33.1122 23.3781H22.625V11.957H28.5312C29.6156 11.957 30.5 11.102 30.5 10.0535V2.43953C30.5 1.39112 29.6156 0.536026 28.5312 0.536026H11.4688ZM11.4688 1.80503H28.5312C28.8927 1.80503 29.1875 2.09006 29.1875 2.43953V10.0535C29.1875 10.403 28.8927 10.688 28.5312 10.688H11.4688C11.1073 10.688 10.8125 10.403 10.8125 10.0535V9.41904H23.2812C23.6427 9.41904 23.9375 9.13401 23.9375 8.78454C23.9375 8.43507 23.6427 8.15004 23.2812 8.15004H10.8125V2.43953C10.8125 2.09006 11.1073 1.80503 11.4688 1.80503ZM25.9601 8.15004C25.5986 8.15004 25.3038 8.43507 25.3038 8.78454C25.3038 9.13401 25.5986 9.41904 25.9601 9.41904H27.2188C27.5802 9.41904 27.875 9.13401 27.875 8.78454C27.875 8.43507 27.5802 8.15004 27.2188 8.15004H25.9601ZM18.6875 11.957H21.3125V14.4951H18.7413C18.7234 14.4951 18.7054 14.505 18.6875 14.505V11.957ZM18.6875 15.7541C18.7054 15.7541 18.7234 15.7641 18.7413 15.7641H21.3125V23.3781H18.6875V15.7541ZM6.88782 24.6471H33.1122C33.3224 24.6471 33.5198 24.7437 33.6428 24.9073L37.9982 30.6971C38.0674 30.7913 38.1263 30.8905 38.1776 30.9921H1.82239C1.87366 30.8905 1.93262 30.7913 2.00183 30.6971L6.35718 24.9073C6.48023 24.7437 6.67761 24.6471 6.88782 24.6471ZM1.625 32.2611H38.375V36.7026C38.375 37.0521 38.0802 37.3371 37.7188 37.3371H2.28125C1.9198 37.3371 1.625 37.0521 1.625 36.7026V32.2611ZM3.59375 33.5301C3.2323 33.5301 2.9375 33.8151 2.9375 34.1646V35.4336C2.9375 35.7831 3.2323 36.0681 3.59375 36.0681C3.9552 36.0681 4.25 35.7831 4.25 35.4336V34.1646C4.25 33.8151 3.9552 33.5301 3.59375 33.5301ZM6.875 33.5301C6.51355 33.5301 6.21875 33.8151 6.21875 34.1646V35.4336C6.21875 35.7831 6.51355 36.0681 6.875 36.0681C7.23645 36.0681 7.53125 35.7831 7.53125 35.4336V34.1646C7.53125 33.8151 7.23645 33.5301 6.875 33.5301ZM10.1562 33.5301C9.7948 33.5301 9.5 33.8151 9.5 34.1646V35.4336C9.5 35.7831 9.7948 36.0681 10.1562 36.0681C10.5177 36.0681 10.8125 35.7831 10.8125 35.4336V34.1646C10.8125 33.8151 10.5177 33.5301 10.1562 33.5301ZM13.4375 33.5301C13.076 33.5301 12.7812 33.8151 12.7812 34.1646V35.4336C12.7812 35.7831 13.076 36.0681 13.4375 36.0681C13.799 36.0681 14.0938 35.7831 14.0938 35.4336V34.1646C14.0938 33.8151 13.799 33.5301 13.4375 33.5301ZM16.7188 33.5301C16.3573 33.5301 16.0625 33.8151 16.0625 34.1646V35.4336C16.0625 35.7831 16.3573 36.0681 16.7188 36.0681C17.0802 36.0681 17.375 35.7831 17.375 35.4336V34.1646C17.375 33.8151 17.0802 33.5301 16.7188 33.5301ZM20 33.5301C19.6385 33.5301 19.3438 33.8151 19.3438 34.1646V35.4336C19.3438 35.7831 19.6385 36.0681 20 36.0681C20.3615 36.0681 20.6562 35.7831 20.6562 35.4336V34.1646C20.6562 33.8151 20.3615 33.5301 20 33.5301ZM23.2812 33.5301C22.9198 33.5301 22.625 33.8151 22.625 34.1646V35.4336C22.625 35.7831 22.9198 36.0681 23.2812 36.0681C23.6427 36.0681 23.9375 35.7831 23.9375 35.4336V34.1646C23.9375 33.8151 23.6427 33.5301 23.2812 33.5301ZM26.5625 33.5301C26.201 33.5301 25.9062 33.8151 25.9062 34.1646V35.4336C25.9062 35.7831 26.201 36.0681 26.5625 36.0681C26.924 36.0681 27.2188 35.7831 27.2188 35.4336V34.1646C27.2188 33.8151 26.924 33.5301 26.5625 33.5301ZM29.8438 33.5301C29.4823 33.5301 29.1875 33.8151 29.1875 34.1646V35.4336C29.1875 35.7831 29.4823 36.0681 29.8438 36.0681C30.2052 36.0681 30.5 35.7831 30.5 35.4336V34.1646C30.5 33.8151 30.2052 33.5301 29.8438 33.5301ZM33.125 33.5301C32.7635 33.5301 32.4688 33.8151 32.4688 34.1646V35.4336C32.4688 35.7831 32.7635 36.0681 33.125 36.0681C33.4865 36.0681 33.7812 35.7831 33.7812 35.4336V34.1646C33.7812 33.8151 33.4865 33.5301 33.125 33.5301ZM36.4062 33.5301C36.0448 33.5301 35.75 33.8151 35.75 34.1646V35.4336C35.75 35.7831 36.0448 36.0681 36.4062 36.0681C36.7677 36.0681 37.0625 35.7831 37.0625 35.4336V34.1646C37.0625 33.8151 36.7677 33.5301 36.4062 33.5301ZM5.5625 38.6061H6.875V39.2406C6.875 39.5901 6.5802 39.8751 6.21875 39.8751C5.8573 39.8751 5.5625 39.5901 5.5625 39.2406V38.6061ZM33.125 38.6061H34.4375V39.2406C34.4375 39.5901 34.1427 39.8751 33.7812 39.8751C33.4198 39.8751 33.125 39.5901 33.125 39.2406V38.6061Z" fill="#07A530"/>
</svg>