<svg xmlns="http://www.w3.org/2000/svg" width="16" height="11" viewBox="0 0 16 11" fill="none">
<path fill-rule="evenodd" clip-rule="evenodd" d="M16 1.25C16 0.979801 15.8547 0.730481 15.6195 0.597351C15.3844 0.464221 15.0958 0.467861 14.8641 0.606881L11 2.92536V2.25C11 1.2835 10.2165 0.500001 9.25 0.500001H1.75C0.783502 0.500001 0 1.2835 0 2.25V8.75C0 9.7165 0.783502 10.5 1.75 10.5H9.25C10.2165 10.5 11 9.7165 11 8.75V8.0746L14.8641 10.3931C15.0958 10.5321 15.3844 10.5358 15.6195 10.4026C15.8547 10.2695 16 10.0202 16 9.75V1.25ZM11 6.32536L14.5 8.4254V2.57464L11 4.67464V6.32536ZM9.5 4.25V2.25C9.5 2.11193 9.38807 2 9.25 2H1.75C1.61193 2 1.5 2.11193 1.5 2.25V8.75C1.5 8.8881 1.61193 9 1.75 9H9.25C9.38807 9 9.5 8.8881 9.5 8.75V6.75V4.25Z" fill="black"/>
</svg>