<svg xmlns="http://www.w3.org/2000/svg" width="42" height="39" viewBox="0 0 42 39" fill="none">
<path d="M32.1562 0.625C31.0719 0.625 30.1875 1.5094 30.1875 2.59375C30.1875 3.4397 30.7284 4.15747 31.4795 4.43433L31.0463 15.4932L30.2721 14.3345C30.0286 13.9679 29.621 13.75 29.1801 13.75H11.8125V12.476C11.8125 12.1119 11.5177 11.8197 11.1562 11.8197C10.7948 11.8197 10.5 12.1119 10.5 12.476V13.75H9.1875V9.1947C9.1875 8.83069 8.8927 8.53845 8.53125 8.53845C8.1698 8.53845 7.875 8.83069 7.875 9.1947V13.75H6.25745C5.81653 13.75 5.40894 13.9679 5.16541 14.3345L2.90442 17.726C1.99951 17.9028 1.3125 18.7001 1.3125 19.6562C1.3125 20.5099 1.86365 21.2328 2.625 21.5045V37.375H0.65625C0.2948 37.375 0 37.6672 0 38.0312C0 38.3953 0.2948 38.6875 0.65625 38.6875H41.3438C41.7052 38.6875 42 38.3953 42 38.0312C42 37.6672 41.7052 37.375 41.3438 37.375H39.3699C39.3699 37.3647 39.375 37.3596 39.375 37.3494L38.083 4.43433C38.8341 4.15747 39.375 3.4397 39.375 2.59375C39.375 1.5094 38.4906 0.625 37.4062 0.625H32.1562ZM32.1562 1.9375H37.4062C37.7677 1.9375 38.0625 2.2323 38.0625 2.59375C38.0625 2.9552 37.7677 3.25 37.4062 3.25H32.1562C31.7948 3.25 31.5 2.9552 31.5 2.59375C31.5 2.2323 31.7948 1.9375 32.1562 1.9375ZM32.7869 4.5625H36.7731L37.6498 26.875H32.8125V21.5045C33.5739 21.2328 34.125 20.5099 34.125 19.6562C34.125 18.7001 33.438 17.9028 32.5331 17.726L32.287 17.3542L32.7869 4.5625ZM6.25745 15.0625H7.875V15.7572C7.875 16.1187 8.1698 16.4135 8.53125 16.4135C8.8927 16.4135 9.1875 16.1187 9.1875 15.7572V15.0625H10.5V15.7572C10.5 16.1187 10.7948 16.4135 11.1562 16.4135C11.5177 16.4135 11.8125 16.1187 11.8125 15.7572V15.0625H29.1801L30.9309 17.6875H4.50659L6.25745 15.0625ZM3.28125 19H32.1562C32.5177 19 32.8125 19.2948 32.8125 19.6562C32.8125 20.0177 32.5177 20.3125 32.1562 20.3125H3.28125C2.9198 20.3125 2.625 20.0177 2.625 19.6562C2.625 19.2948 2.9198 19 3.28125 19ZM3.9375 21.625H31.5V37.375H20.9974C20.9974 37.3647 21 37.3519 21 37.3417V32.0917C21 31.3688 20.4104 30.7792 19.6875 30.7792H15.75C15.0271 30.7792 14.4375 31.3688 14.4375 32.0917V37.3417C14.4375 37.3519 14.4401 37.3647 14.4401 37.375H3.9375V21.625ZM5.90625 24.25C5.5448 24.25 5.25 24.5422 5.25 24.9062C5.25 25.2703 5.5448 25.5625 5.90625 25.5625H7.21875C7.5802 25.5625 7.875 25.2703 7.875 24.9062C7.875 24.5422 7.5802 24.25 7.21875 24.25H5.90625ZM9.84375 24.25C9.4823 24.25 9.1875 24.5422 9.1875 24.9062C9.1875 25.2703 9.4823 25.5625 9.84375 25.5625H11.1562C11.5177 25.5625 11.8125 25.2703 11.8125 24.9062C11.8125 24.5422 11.5177 24.25 11.1562 24.25H9.84375ZM15.0938 24.25C14.7323 24.25 14.4375 24.5422 14.4375 24.9062C14.4375 25.2703 14.7323 25.5625 15.0938 25.5625H16.4062C16.7677 25.5625 17.0625 25.2703 17.0625 24.9062C17.0625 24.5422 16.7677 24.25 16.4062 24.25H15.0938ZM19.0312 24.25C18.6698 24.25 18.375 24.5422 18.375 24.9062C18.375 25.2703 18.6698 25.5625 19.0312 25.5625H20.3438C20.7052 25.5625 21 25.2703 21 24.9062C21 24.5422 20.7052 24.25 20.3438 24.25H19.0312ZM24.2812 24.25C23.9198 24.25 23.625 24.5422 23.625 24.9062C23.625 25.2703 23.9198 25.5625 24.2812 25.5625H25.5938C25.9552 25.5625 26.25 25.2703 26.25 24.9062C26.25 24.5422 25.9552 24.25 25.5938 24.25H24.2812ZM28.2188 24.25C27.8573 24.25 27.5625 24.5422 27.5625 24.9062C27.5625 25.2703 27.8573 25.5625 28.2188 25.5625H29.5312C29.8927 25.5625 30.1875 25.2703 30.1875 24.9062C30.1875 24.5422 29.8927 24.25 29.5312 24.25H28.2188ZM5.90625 26.875C5.5448 26.875 5.25 27.1672 5.25 27.5312C5.25 27.8953 5.5448 28.1875 5.90625 28.1875H7.21875C7.5802 28.1875 7.875 27.8953 7.875 27.5312C7.875 27.1672 7.5802 26.875 7.21875 26.875H5.90625ZM9.84375 26.875C9.4823 26.875 9.1875 27.1672 9.1875 27.5312C9.1875 27.8953 9.4823 28.1875 9.84375 28.1875H11.1562C11.5177 28.1875 11.8125 27.8953 11.8125 27.5312C11.8125 27.1672 11.5177 26.875 11.1562 26.875H9.84375ZM15.0938 26.875C14.7323 26.875 14.4375 27.1672 14.4375 27.5312C14.4375 27.8953 14.7323 28.1875 15.0938 28.1875H16.4062C16.7677 28.1875 17.0625 27.8953 17.0625 27.5312C17.0625 27.1672 16.7677 26.875 16.4062 26.875H15.0938ZM19.0312 26.875C18.6698 26.875 18.375 27.1672 18.375 27.5312C18.375 27.8953 18.6698 28.1875 19.0312 28.1875H20.3438C20.7052 28.1875 21 27.8953 21 27.5312C21 27.1672 20.7052 26.875 20.3438 26.875H19.0312ZM24.2812 26.875C23.9198 26.875 23.625 27.1672 23.625 27.5312C23.625 27.8953 23.9198 28.1875 24.2812 28.1875H25.5938C25.9552 28.1875 26.25 27.8953 26.25 27.5312C26.25 27.1672 25.9552 26.875 25.5938 26.875H24.2812ZM28.2188 26.875C27.8573 26.875 27.5625 27.1672 27.5625 27.5312C27.5625 27.8953 27.8573 28.1875 28.2188 28.1875H29.5312C29.8927 28.1875 30.1875 27.8953 30.1875 27.5312C30.1875 27.1672 29.8927 26.875 29.5312 26.875H28.2188ZM32.8125 28.1875H37.701L37.8062 30.8125H32.8125V28.1875ZM5.90625 30.8125C5.5448 30.8125 5.25 31.1047 5.25 31.4688C5.25 31.8328 5.5448 32.125 5.90625 32.125H7.21875C7.5802 32.125 7.875 31.8328 7.875 31.4688C7.875 31.1047 7.5802 30.8125 7.21875 30.8125H5.90625ZM9.84375 30.8125C9.4823 30.8125 9.1875 31.1047 9.1875 31.4688C9.1875 31.8328 9.4823 32.125 9.84375 32.125H11.1562C11.5177 32.125 11.8125 31.8328 11.8125 31.4688C11.8125 31.1047 11.5177 30.8125 11.1562 30.8125H9.84375ZM24.2812 30.8125C23.9198 30.8125 23.625 31.1047 23.625 31.4688C23.625 31.8328 23.9198 32.125 24.2812 32.125H25.5938C25.9552 32.125 26.25 31.8328 26.25 31.4688C26.25 31.1047 25.9552 30.8125 25.5938 30.8125H24.2812ZM28.2188 30.8125C27.8573 30.8125 27.5625 31.1047 27.5625 31.4688C27.5625 31.8328 27.8573 32.125 28.2188 32.125H29.5312C29.8927 32.125 30.1875 31.8328 30.1875 31.4688C30.1875 31.1047 29.8927 30.8125 29.5312 30.8125H28.2188ZM15.75 32.0917H19.6875V37.3417H15.75V32.0917ZM32.8125 32.125H37.8574L38.0625 37.375H32.8125V32.125ZM5.90625 33.4375C5.5448 33.4375 5.25 33.7297 5.25 34.0938C5.25 34.4578 5.5448 34.75 5.90625 34.75H7.21875C7.5802 34.75 7.875 34.4578 7.875 34.0938C7.875 33.7297 7.5802 33.4375 7.21875 33.4375H5.90625ZM9.84375 33.4375C9.4823 33.4375 9.1875 33.7297 9.1875 34.0938C9.1875 34.4578 9.4823 34.75 9.84375 34.75H11.1562C11.5177 34.75 11.8125 34.4578 11.8125 34.0938C11.8125 33.7297 11.5177 33.4375 11.1562 33.4375H9.84375ZM24.2812 33.4375C23.9198 33.4375 23.625 33.7297 23.625 34.0938C23.625 34.4578 23.9198 34.75 24.2812 34.75H25.5938C25.9552 34.75 26.25 34.4578 26.25 34.0938C26.25 33.7297 25.9552 33.4375 25.5938 33.4375H24.2812ZM28.2188 33.4375C27.8573 33.4375 27.5625 33.7297 27.5625 34.0938C27.5625 34.4578 27.8573 34.75 28.2188 34.75H29.5312C29.8927 34.75 30.1875 34.4578 30.1875 34.0938C30.1875 33.7297 29.8927 33.4375 29.5312 33.4375H28.2188Z" fill="#FFDF00"/>
</svg>