<svg xmlns="http://www.w3.org/2000/svg" width="42" height="42" viewBox="0 0 42 42" fill="none">
<path d="M35.6631 1.33813C34.9838 1.33813 34.3044 1.58423 33.8071 2.08154L31.9845 3.90161L31.9819 3.90417L31.682 4.20666L31.4872 4.40149V4.40405L30.5977 5.29358C30.5284 5.27051 30.4567 5.25 30.3823 5.25H3.28125C2.1969 5.25 1.3125 6.1344 1.3125 7.21875V37.4062C1.3125 38.4906 2.1969 39.375 3.28125 39.375H33.4688C34.5531 39.375 35.4375 38.4906 35.4375 37.4062V15.3065L38.9136 11.8253L41.231 9.50537C41.7283 9.01062 42 8.34924 42 7.64941C42 6.94958 41.7283 6.28821 41.231 5.79346L37.519 2.08154C37.0243 1.58679 36.3424 1.33813 35.6631 1.33813ZM35.6631 2.63782C36.004 2.63782 36.3424 2.76086 36.5911 3.00952L40.303 6.72144C40.5516 6.97009 40.6875 7.29822 40.6875 7.64941C40.6875 8.00061 40.5516 8.32873 40.303 8.57739L38.447 10.4333L32.8792 4.86548L34.7351 3.00952C34.9838 2.76086 35.3221 2.63782 35.6631 2.63782ZM31.9512 5.79346L37.519 11.3613L36.5885 12.2944C36.3322 12.0509 35.9297 12.0535 35.6759 12.3047L34.7505 13.2327C34.4967 13.4864 34.4967 13.8915 34.7402 14.1478L33.8097 15.0784L28.2418 9.5105L31.9512 5.79346ZM3.28125 6.5625H29.3287L26.8755 9.02344C26.8652 9.03113 26.855 9.03369 26.8447 9.04395C26.837 9.05164 26.8345 9.06445 26.8242 9.07471L13.871 22.0562C13.7659 22.1587 13.6992 22.2946 13.6838 22.4432L13.2045 26.5833L12.7379 29.8312C12.7097 30.0363 12.7789 30.2413 12.9225 30.39C13.0481 30.5131 13.2147 30.5797 13.389 30.5797C13.4198 30.5797 13.4506 30.5797 13.4813 30.5746L16.7113 30.1132L20.9 29.6697C21.0513 29.6543 21.1897 29.5851 21.2974 29.48L34.125 16.6216V37.4062C34.125 37.7677 33.8302 38.0625 33.4688 38.0625H3.28125C2.9198 38.0625 2.625 37.7677 2.625 37.4062V7.21875C2.625 6.8573 2.9198 6.5625 3.28125 6.5625ZM31.5 7.47253C31.3334 7.47253 31.1667 7.53662 31.0386 7.66479L30.108 8.59277C29.8517 8.84912 29.8517 9.2644 30.108 9.52075C30.2362 9.64893 30.4054 9.71301 30.5746 9.71301C30.7412 9.71301 30.9104 9.64893 31.0386 9.52075L31.964 8.59277C32.2203 8.33643 32.2203 7.92114 31.964 7.66479C31.8358 7.53662 31.6692 7.47253 31.5 7.47253ZM6.5625 9.1875C5.8396 9.1875 5.25 9.7771 5.25 10.5V34.125C5.25 34.8479 5.8396 35.4375 6.5625 35.4375H8.53125C8.89526 35.4375 9.1875 35.1427 9.1875 34.7812C9.1875 34.4198 8.89526 34.125 8.53125 34.125H6.5625V10.5H23.1866C23.5507 10.5 23.8429 10.2052 23.8429 9.84375C23.8429 9.4823 23.5507 9.1875 23.1866 9.1875H6.5625ZM33.8199 9.79248C33.6533 9.79248 33.4841 9.85657 33.356 9.98474L32.428 10.9127C32.1716 11.1691 32.1716 11.5844 32.428 11.8407C32.5562 11.9689 32.7228 12.033 32.892 12.033C33.0612 12.033 33.2278 11.9689 33.356 11.8407L34.2839 10.9127C34.5403 10.6564 34.5403 10.2411 34.2839 9.98474C34.1558 9.85657 33.9866 9.79248 33.8199 9.79248ZM27.3164 10.4385L32.8843 16.0063L21.2974 27.6163L21.0026 24.7529C20.9667 24.4171 20.6847 24.1633 20.3489 24.1633H19.1492V23.2354L22.6714 19.7157C22.9277 19.4568 22.9277 19.0441 22.6714 18.7852C22.4125 18.5288 21.9998 18.5288 21.7408 18.7852L18.252 22.2766L15.7628 22.0151L27.3164 10.4385ZM25.9193 14.881C25.7501 14.881 25.5835 14.9451 25.4528 15.0732L23.5968 16.9292C23.3405 17.1855 23.3405 17.6008 23.5968 17.8597C23.725 17.9854 23.8916 18.0494 24.0608 18.0494C24.23 18.0494 24.3966 17.9854 24.5248 17.8597L26.3833 16.0038C26.6396 15.7474 26.6396 15.3322 26.3833 15.0732C26.2526 14.9451 26.0859 14.881 25.9193 14.881ZM30.8438 22.3663C30.4797 22.3663 30.1875 22.6611 30.1875 23.0226V34.125H28.2188C27.8547 34.125 27.5625 34.4198 27.5625 34.7812C27.5625 35.1427 27.8547 35.4375 28.2188 35.4375H30.1875C30.9104 35.4375 31.5 34.8479 31.5 34.125V23.0226C31.5 22.6611 31.2078 22.3663 30.8438 22.3663ZM14.9117 23.2456L17.8367 23.5532V24.817C17.8367 25.181 18.1289 25.4758 18.4929 25.4758H19.7593L20.0643 28.4366L16.8779 28.7725L14.54 26.4346L14.9117 23.2456ZM11.8125 32.8125C11.4485 32.8125 11.1562 33.1073 11.1562 33.4688V34.7812C11.1562 35.1427 11.4485 35.4375 11.8125 35.4375C12.1765 35.4375 12.4688 35.1427 12.4688 34.7812V33.4688C12.4688 33.1073 12.1765 32.8125 11.8125 32.8125ZM15.0938 32.8125C14.7297 32.8125 14.4375 33.1073 14.4375 33.4688V34.7812C14.4375 35.1427 14.7297 35.4375 15.0938 35.4375C15.4578 35.4375 15.75 35.1427 15.75 34.7812V33.4688C15.75 33.1073 15.4578 32.8125 15.0938 32.8125ZM18.375 32.8125C18.011 32.8125 17.7188 33.1073 17.7188 33.4688V34.7812C17.7188 35.1427 18.011 35.4375 18.375 35.4375C18.739 35.4375 19.0312 35.1427 19.0312 34.7812V33.4688C19.0312 33.1073 18.739 32.8125 18.375 32.8125ZM21.6562 32.8125C21.2922 32.8125 21 33.1073 21 33.4688V34.7812C21 35.1427 21.2922 35.4375 21.6562 35.4375C22.0203 35.4375 22.3125 35.1427 22.3125 34.7812V33.4688C22.3125 33.1073 22.0203 32.8125 21.6562 32.8125ZM24.9375 32.8125C24.5735 32.8125 24.2812 33.1073 24.2812 33.4688V34.7812C24.2812 35.1427 24.5735 35.4375 24.9375 35.4375C25.3015 35.4375 25.5938 35.1427 25.5938 34.7812V33.4688C25.5938 33.1073 25.3015 32.8125 24.9375 32.8125Z" fill="#FFDF00"/>
</svg>