<svg xmlns="http://www.w3.org/2000/svg" width="108" height="108" viewBox="0 0 108 108" fill="none">
<path d="M48.9974 5.26845C51.9241 2.93448 56.0759 2.93448 59.0026 5.26844C61.5422 7.29368 64.9057 7.96273 68.027 7.06351C71.6241 6.02721 75.4598 7.61601 77.2705 10.8923C78.8418 13.7352 81.6932 15.6405 84.9211 16.0042C88.6409 16.4234 91.5766 19.3591 91.9958 23.0789C92.3595 26.3068 94.2647 29.1582 97.1077 30.7295C100.384 32.5402 101.973 36.3759 100.936 39.973C100.037 43.0943 100.706 46.4578 102.732 48.9974C105.066 51.9241 105.066 56.0759 102.732 59.0026C100.706 61.5422 100.037 64.9057 100.937 68.027C101.973 71.6241 100.384 75.4598 97.1077 77.2705C94.2647 78.8418 92.3595 81.6932 91.9958 84.9211C91.5766 88.6409 88.6409 91.5766 84.9211 91.9958C81.6932 92.3595 78.8418 94.2647 77.2705 97.1077C75.4598 100.384 71.6241 101.973 68.027 100.936C64.9057 100.037 61.5422 100.706 59.0026 102.732C56.0759 105.066 51.9241 105.066 48.9974 102.732C46.4578 100.706 43.0943 100.037 39.973 100.936C36.3759 101.973 32.5402 100.384 30.7295 97.1077C29.1582 94.2647 26.3068 92.3595 23.0789 91.9958C19.3591 91.5766 16.4234 88.6409 16.0042 84.9211C15.6405 81.6932 13.7352 78.8418 10.8923 77.2705C7.61601 75.4598 6.02721 71.6241 7.06351 68.027C7.96273 64.9057 7.29368 61.5422 5.26845 59.0026C2.93448 56.0759 2.93448 51.9241 5.26844 48.9974C7.29368 46.4578 7.96273 43.0943 7.06351 39.973C6.02721 36.3759 7.61602 32.5402 10.8923 30.7295C13.7352 29.1582 15.6405 26.3068 16.0042 23.0789C16.4234 19.3591 19.3591 16.4234 23.0789 16.0042C26.3068 15.6405 29.1582 13.7352 30.7295 10.8923C32.5402 7.61602 36.3759 6.02721 39.973 7.06351C43.0943 7.96273 46.4578 7.29368 48.9974 5.26845Z" fill="url(#paint0_linear)" stroke="url(#paint1_linear)" stroke-width="2"/>
<path d="M18.8183 57.0847C20.0791 56.9352 20.9587 58.191 21.1444 59.696C21.2519 60.593 21.1053 61.5896 20.6362 62.4268L19.8739 62.1677C20.2746 61.48 20.4114 60.6528 20.3235 59.9152C20.1964 58.8488 19.6393 58.0016 18.7988 58.1013C18.0951 58.191 17.7921 58.8388 17.9192 59.8654L18.0951 61.4202L17.3034 61.5199L17.1275 60.0348C17.02 59.1478 16.5802 58.6694 15.9449 58.7491C15.2021 58.8388 14.8698 59.6561 14.9871 60.6129C15.0555 61.2408 15.3194 61.9185 15.7592 62.4866L14.9969 62.9052C14.518 62.2275 14.2346 61.4501 14.1466 60.6926C13.9805 59.2375 14.5278 57.9119 15.7104 57.7724C16.4141 57.6827 17.0005 58.0415 17.3328 58.6893C17.4696 57.7824 18.0169 57.1744 18.8183 57.0847Z" fill="#008832"/>
<path d="M19.3266 50.8256L19.0431 54.5432L20.6948 55.4501L20.6167 56.4767L14 52.7691L14.0782 51.7824L21.1738 49.1512L21.0956 50.1977L19.3266 50.8256ZM18.5251 51.1047L15.0555 52.3505L18.3003 54.1246L18.5251 51.1047Z" fill="#008832"/>
<path d="M21.2617 42.2044C22.3857 42.5433 22.8157 43.5997 22.327 45.2442L21.4279 48.314L14.8405 46.3107L15.681 43.4203C16.1111 41.9552 16.9614 41.2576 18.056 41.5964C18.7792 41.8157 19.1702 42.3639 19.2288 43.0914C19.7175 42.2642 20.4016 41.9453 21.2617 42.2044ZM18.0169 46.2509L18.5642 44.3771C18.8379 43.4602 18.6131 42.8223 17.9094 42.613C17.2057 42.3938 16.6779 42.8024 16.4043 43.7193L15.857 45.5931L18.0169 46.2509ZM20.9001 43.1512C20.1378 42.922 19.6393 43.3506 19.3461 44.3672L18.7304 46.4701L20.9587 47.1479L21.5745 45.0449C21.8774 44.0383 21.6722 43.3904 20.9001 43.1512Z" fill="#008832"/>
<path d="M20.2941 40.3207C18.5447 39.3041 17.9974 37.1812 19.0431 35.3074C20.0791 33.4536 22.1413 32.8257 23.9006 33.8423C25.6598 34.8589 26.1876 36.9818 25.1613 38.8456C24.1156 40.7094 22.0436 41.3373 20.2941 40.3207ZM23.4119 34.7094C22.0925 33.942 20.5482 34.3905 19.8055 35.746C19.0431 37.1114 19.4536 38.6862 20.7828 39.4536C22.1022 40.221 23.6367 39.7725 24.399 38.4071C25.1516 37.0516 24.7411 35.4769 23.4119 34.7094Z" fill="#008832"/>
<path d="M31.3577 29.2676L33.0974 30.8922L32.4817 31.5799L31.3773 30.5433L27.5558 34.7892L28.6603 35.8357L28.0445 36.5234L26.3146 34.8888L26.5394 34.6397C27.1356 33.8922 26.0605 32.5765 24.5652 31.0815L22.9818 29.5068L26.2462 25.8789L30.6834 30.0251L31.3577 29.2676ZM27.3897 33.6729L30.009 30.7626L26.2071 27.2045L24.1644 29.4669L25.2004 30.4935C26.4026 31.6995 27.3995 32.8656 27.3897 33.6729Z" fill="#008832"/>
<path d="M30.3804 26.746C29.2076 25.0517 29.6181 22.9088 31.3284 21.673C32.1983 21.0451 33.1561 20.8059 34.0846 21.0251L33.9184 21.9122C33.1658 21.7627 32.4817 21.9321 31.866 22.3706C30.5954 23.2876 30.3022 24.8922 31.1818 26.158C32.0614 27.4238 33.6447 27.6829 34.9153 26.766C35.531 26.3175 35.9122 25.7195 36.0197 24.9421L36.8993 25.0816C36.7918 26.0384 36.2543 26.8955 35.3844 27.5234C33.6741 28.7593 31.5532 28.4404 30.3804 26.746Z" fill="#008832"/>
<path d="M39.372 21.6829L38.0526 22.271L39.2743 25.1015L38.3947 25.4902L35.6288 19.0717L36.5084 18.683L37.7105 21.4637L39.0397 20.8756L39.8216 17.1979L40.7794 16.7694L39.8705 20.8856L43.6528 23.1381L42.6266 23.5966L39.372 21.6829Z" fill="#008832"/>
<path d="M48.217 20.3275L44.6497 21.1248L44.2783 22.9985L43.2912 23.2178L44.8647 15.6929L45.8128 15.4836L50.3281 21.6431L49.3214 21.8723L48.217 20.3275ZM47.7088 19.6198L45.5391 16.59L44.8159 20.2677L47.7088 19.6198Z" fill="#008832"/>
<path d="M55.8111 14.6165L55.9186 21.6231L54.9608 21.6431L54.9314 19.5999L53.0354 19.6298C52.9474 19.6298 52.8595 19.6298 52.7715 19.6198L51.4325 21.6929L50.3965 21.7128L51.8821 19.4604C50.9048 19.1414 50.3379 18.3541 50.3281 17.2278C50.2988 15.6232 51.3739 14.6863 53.0647 14.6564L55.8111 14.6165ZM53.094 18.7926L54.9119 18.7627L54.863 15.5135L53.1038 15.5435C51.931 15.5634 51.2859 16.1315 51.3055 17.2179C51.325 18.2345 51.931 18.8125 53.094 18.7926Z" fill="#008832"/>
<path d="M66.0439 17.3674L62.6134 16.5003L61.1669 22.4703L60.2287 22.2311L61.8804 15.4238L66.2589 16.5302L66.0439 17.3674Z" fill="#008832"/>
<path d="M69.0248 23.3673L65.653 21.9321L64.2945 23.2477L63.3562 22.849L68.8782 17.6066L69.7774 17.9853L70.0022 25.6796L69.0541 25.271L69.0248 23.3673ZM69.0053 22.4902L68.9369 18.7428L66.2687 21.3241L69.0053 22.4902Z" fill="#008832"/>
<path d="M77.8014 25.6596C76.9511 26.9155 75.5535 27.045 74.0777 26.0085L72.6801 25.0218L71.4975 26.766L70.6863 26.1979L74.5859 20.4271L76.7948 21.9819C78.2706 23.0185 78.642 24.4038 77.8014 25.6596ZM76.9902 25.0915C77.5473 24.2643 77.3225 23.4171 76.2865 22.6896L74.9085 21.7228L73.159 24.3141L74.5371 25.2809C75.5731 25.9985 76.4331 25.9088 76.9902 25.0915Z" fill="#008832"/>
<path d="M80.108 31.9387L77.5571 29.2776L75.7979 29.9453L75.0942 29.2078L82.1897 26.5766L82.8739 27.2842L80.1373 34.4603L79.4141 33.7028L80.108 31.9387ZM80.4207 31.1314L81.789 27.653L78.339 28.9686L80.4207 31.1314Z" fill="#008832"/>
<path d="M89.5296 36.643L83.6753 40.3207L83.1573 39.4636L85.7668 37.829L83.6949 34.3905L81.0853 36.035L80.5771 35.1779L86.4314 31.5101L86.9397 32.3573L84.4279 33.942L86.4998 37.3706L89.0116 35.7859L89.5296 36.643Z" fill="#008832"/>
<path d="M91.6505 44.4569L90.8393 42.1944L85.1804 44.2974L84.8579 43.3805L90.5168 41.2775L89.7056 39.025L90.507 38.726L92.4519 44.1579L91.6505 44.4569Z" fill="#008832"/>
<path d="M93.009 46.3605L93.1556 47.3373L87.917 48.1346L93.7518 51.4336L93.8886 52.3505L87.096 53.387L86.9494 52.4103L92.188 51.613L86.3532 48.304L86.2164 47.3971L93.009 46.3605Z" fill="#008832"/>
<path d="M93.6247 60.8322L86.7637 60.3438L86.8322 59.3671L88.8357 59.5066L88.9628 57.573C88.9725 57.4833 88.9725 57.3936 88.9921 57.3039L87.0765 55.7691L87.1449 54.7126L89.2169 56.4169C89.6078 55.4501 90.4288 54.9418 91.5332 55.0216C93.097 55.1312 93.9277 56.3073 93.8104 58.0215L93.6247 60.8322ZM89.7837 57.7225L89.6567 59.5764L92.8428 59.8056L92.9601 58.0116C93.0383 56.8255 92.5399 56.1179 91.4745 56.0382C90.4777 55.9584 89.8619 56.5265 89.7837 57.7225Z" fill="#008832"/>
<path d="M53.9248 93.3835C37.9842 93.3835 23.8224 83.048 18.6913 67.6594C18.6131 67.4301 18.7304 67.171 18.9649 67.0913C19.1897 67.0115 19.4438 67.1311 19.522 67.3703C24.5358 82.4001 38.3653 92.4864 53.9345 92.4864C69.7578 92.4864 83.6558 82.1709 88.523 66.8222C88.6012 66.5929 88.8455 66.4634 89.0703 66.5331C89.2951 66.6129 89.4221 66.862 89.3537 67.0913C84.3595 82.8187 70.1292 93.3835 53.9248 93.3835Z" fill="#008832"/>
<path fill-rule="evenodd" clip-rule="evenodd" d="M38.5378 37.2228C35.5248 38.6124 34.1758 39.9836 34.1758 39.9836C34.1848 39.9836 34.1758 39.9836 34.1758 51.2554C34.1848 59.7115 36.9549 70.9833 53.5753 79.4303C60.2217 76.057 64.6557 72.2266 67.5696 68.3139L38.5378 37.2228Z" fill="#008832"/>
<path d="M72.9843 39.9745V51.2463C72.9843 56.3291 71.9769 62.4266 67.579 68.3139L38.5381 37.2228C41.6409 35.7967 46.5425 34.3431 53.5757 34.3431C67.4351 34.3431 72.9843 39.9745 72.9843 39.9745Z" fill="#00A434"/>
<path d="M50.6595 69H49.6805V64.1985H47.9205C47.8765 64.9062 47.8105 65.5185 47.7225 66.0355C47.6345 66.5488 47.5282 66.987 47.4035 67.35C47.2825 67.7093 47.145 68.0027 46.991 68.23C46.8407 68.4537 46.6812 68.6278 46.5125 68.7525C46.3475 68.8772 46.1752 68.9615 45.9955 69.0055C45.8195 69.0495 45.6435 69.0715 45.4675 69.0715C45.1558 69.0715 45 69.022 45 68.923V68.3015H45.286C45.4107 68.3015 45.5372 68.2795 45.6655 68.2355C45.7938 68.1915 45.9185 68.1072 46.0395 67.9825C46.1642 67.8578 46.2833 67.6837 46.397 67.46C46.5107 67.2327 46.6133 66.9393 46.705 66.58C46.8003 66.217 46.881 65.7788 46.947 65.2655C47.0167 64.7485 47.0698 64.1362 47.1065 63.4285H50.6595V69ZM55.9391 65.6065C55.9391 65.3792 55.9061 65.172 55.8401 64.985C55.7777 64.7943 55.6842 64.6312 55.5596 64.4955C55.4386 64.3562 55.2901 64.2498 55.1141 64.1765C54.9381 64.0995 54.7382 64.061 54.5146 64.061C54.0452 64.061 53.6731 64.1985 53.3981 64.4735C53.1267 64.7448 52.9581 65.1225 52.8921 65.6065H55.9391ZM56.7311 68.219C56.6101 68.3657 56.4652 68.494 56.2966 68.604C56.1279 68.7103 55.9464 68.7983 55.7521 68.868C55.5614 68.9377 55.3634 68.989 55.1581 69.022C54.9527 69.0587 54.7492 69.077 54.5476 69.077C54.1626 69.077 53.8069 69.0128 53.4806 68.8845C53.1579 68.7525 52.8774 68.5618 52.6391 68.3125C52.4044 68.0595 52.2211 67.7478 52.0891 67.3775C51.9571 67.0072 51.8911 66.5818 51.8911 66.1015C51.8911 65.7128 51.9497 65.3498 52.0671 65.0125C52.1881 64.6752 52.3604 64.3837 52.5841 64.138C52.8077 63.8887 53.0809 63.6943 53.4036 63.555C53.7262 63.412 54.0892 63.3405 54.4926 63.3405C54.8262 63.3405 55.1342 63.3973 55.4166 63.511C55.7026 63.621 55.9482 63.7823 56.1536 63.995C56.3626 64.204 56.5257 64.4643 56.6431 64.776C56.7604 65.084 56.8191 65.436 56.8191 65.832C56.8191 65.986 56.8026 66.0887 56.7696 66.14C56.7366 66.1913 56.6742 66.217 56.5826 66.217H52.8591C52.8701 66.569 52.9177 66.8752 53.0021 67.1355C53.0901 67.3958 53.2111 67.614 53.3651 67.79C53.5191 67.9623 53.7024 68.0925 53.9151 68.1805C54.1277 68.2648 54.3661 68.307 54.6301 68.307C54.8757 68.307 55.0866 68.2795 55.2626 68.2245C55.4422 68.1658 55.5962 68.1035 55.7246 68.0375C55.8529 67.9715 55.9592 67.911 56.0436 67.856C56.1316 67.7973 56.2067 67.768 56.2691 67.768C56.3497 67.768 56.4121 67.7992 56.4561 67.8615L56.7311 68.219ZM62.5667 64.1765H60.4272V69H59.4482V64.1765H57.3087V63.4285H62.5667V64.1765Z" fill="white"/>
<path d="M45.394 59C45.2253 59 45.0797 58.9387 44.957 58.816C44.8343 58.6933 44.773 58.5477 44.773 58.379V49.087L42.197 51.065C42.105 51.1417 41.99 51.18 41.852 51.18C41.6527 51.18 41.4763 51.0803 41.323 50.881L39.299 48.259C39.2377 48.1057 39.207 47.9907 39.207 47.914C39.207 47.8067 39.23 47.707 39.276 47.615C39.3373 47.5077 39.414 47.4233 39.506 47.362L45.049 43.061C45.2023 42.9537 45.371 42.9 45.555 42.9H49.902C50.0707 42.9 50.2163 42.9613 50.339 43.084C50.4617 43.2067 50.523 43.3523 50.523 43.521V58.379C50.523 58.5477 50.4617 58.6933 50.339 58.816C50.2163 58.9387 50.0707 59 49.902 59H45.394ZM60.0367 59.23C57.8134 59.2147 56.0884 58.6703 54.8617 57.597C53.6351 56.5237 52.9527 55.1053 52.8147 53.342C52.7687 52.7133 52.7457 51.9083 52.7457 50.927C52.7457 49.9303 52.7687 49.11 52.8147 48.466C52.8914 47.3313 53.2211 46.3347 53.8037 45.476C54.4017 44.602 55.2297 43.9197 56.2877 43.429C57.3611 42.923 58.6107 42.67 60.0367 42.67C61.4627 42.67 62.7047 42.923 63.7627 43.429C64.8361 43.9197 65.6641 44.602 66.2467 45.476C66.8447 46.3347 67.1821 47.3313 67.2587 48.466C67.3047 49.11 67.3277 49.9303 67.3277 50.927C67.3277 51.9083 67.3047 52.7133 67.2587 53.342C67.1207 55.1053 66.4384 56.5237 65.2117 57.597C63.9851 58.6703 62.2601 59.2147 60.0367 59.23ZM60.0367 54.722C60.8034 54.722 61.2174 54.2237 61.2787 53.227C61.3094 52.7823 61.3247 52.008 61.3247 50.904C61.3247 49.7847 61.3094 49.018 61.2787 48.604C61.2174 47.6227 60.8034 47.1243 60.0367 47.109C59.2701 47.1243 58.8561 47.6227 58.7947 48.604C58.7641 49.432 58.7487 50.1987 58.7487 50.904C58.7487 51.5633 58.7641 52.3377 58.7947 53.227C58.8561 54.2237 59.2701 54.722 60.0367 54.722Z" fill="white"/>
<defs>
<linearGradient id="paint0_linear" x1="25.5789" y1="-12.9925" x2="90.1353" y2="138.857" gradientUnits="userSpaceOnUse">
<stop stop-color="#FAFFBC"/>
<stop offset="1" stop-color="#C5FFF2"/>
</linearGradient>
<linearGradient id="paint1_linear" x1="21.6" y1="3.75652" x2="89.2174" y2="117.391" gradientUnits="userSpaceOnUse">
<stop stop-color="white"/>
<stop offset="1" stop-color="#C8F2D8"/>
</linearGradient>
</defs>
</svg>