<svg xmlns="http://www.w3.org/2000/svg" width="20" height="16" viewBox="0 0 20 16" fill="none">
<path fill-rule="evenodd" clip-rule="evenodd" d="M19.5226 0.43868C19.8034 0.71992 19.9612 1.10118 19.9612 1.49868C19.9612 1.89618 19.8034 2.27742 19.5226 2.55868L9.02259 15.0587C8.74133 15.3395 8.36009 15.4973 7.96259 15.4973C7.56509 15.4973 7.18383 15.3395 6.90259 15.0587L0.402593 8.55868C0.137633 8.27432 -0.00660739 7.89824 0.000232609 7.50962C0.00709261 7.12102 0.164512 6.75026 0.439352 6.47542C0.714172 6.2006 1.08495 6.04318 1.47355 6.03632C1.86215 6.02946 2.23823 6.17372 2.52259 6.43868L7.96259 11.8787L17.4026 0.43868C17.6838 0.15778 18.065 0 18.4626 0C18.86 0 19.2414 0.15778 19.5226 0.43868Z" fill="#FFDF00"/>
</svg>