<svg xmlns="http://www.w3.org/2000/svg" width="39" height="38" viewBox="0 0 39 38" fill="none">
<path d="M19.3438 0.253132C8.85144 0.253132 0.3125 8.50908 0.3125 18.6537C0.3125 28.7982 8.85144 37.0542 19.3438 37.0542C29.8361 37.0542 38.375 28.7982 38.375 18.6537C38.375 8.50908 29.8361 0.253132 19.3438 0.253132ZM19.3438 1.52213C29.1132 1.52213 37.0625 9.20802 37.0625 18.6537C37.0625 28.0993 29.1132 35.7852 19.3438 35.7852C9.57434 35.7852 1.625 28.0993 1.625 18.6537C1.625 9.20802 9.57434 1.52213 19.3438 1.52213ZM19.072 4.0651C17.5852 4.08988 16.101 4.32534 14.6885 4.769C14.345 4.87557 14.1578 5.23248 14.2681 5.56708C14.3578 5.83724 14.6141 6.00578 14.8936 6.00578C14.9602 6.00578 15.0269 5.99586 15.0935 5.97356C17.1571 5.32914 19.3873 5.16556 21.5355 5.49768C21.8918 5.55469 22.2277 5.31675 22.2866 4.97223C22.343 4.62524 22.0995 4.30056 21.7432 4.24355C20.8588 4.10723 19.9641 4.04775 19.072 4.0651ZM24.3682 4.94001C24.1144 4.94993 23.876 5.10607 23.7837 5.35145C23.6555 5.68109 23.8273 6.04543 24.1682 6.16936C24.6348 6.3379 25.0962 6.53122 25.5474 6.74933C25.6422 6.79642 25.7422 6.81873 25.8422 6.81873C26.0806 6.81873 26.3113 6.69233 26.4292 6.46926C26.5907 6.15944 26.46 5.77527 26.137 5.61665C25.6473 5.37871 25.1372 5.16308 24.6271 4.97967C24.5425 4.94993 24.4553 4.93753 24.3682 4.94001ZM9.10266 25.6332C8.9386 25.6084 8.76172 25.6431 8.6156 25.7472L7.55432 26.4957C7.26209 26.7014 7.198 27.098 7.41077 27.3805C7.53894 27.5515 7.73889 27.6408 7.94141 27.6408C8.07727 27.6408 8.21057 27.6036 8.32849 27.5193L9.38721 26.7733C9.68201 26.5676 9.74609 26.1685 9.53333 25.886C9.42566 25.7447 9.26929 25.658 9.10266 25.6332ZM11.2355 27.9679C11.0688 27.9853 10.9099 28.0646 10.7946 28.2009L9.97168 29.1899C9.74353 29.4625 9.78711 29.8615 10.0691 30.0821C10.1896 30.1763 10.3357 30.2209 10.4818 30.2209C10.6715 30.2209 10.8638 30.1416 10.9919 29.9855L11.8174 28.9965C12.043 28.7239 11.9994 28.3248 11.7174 28.1043C11.5764 27.9952 11.4021 27.9506 11.2355 27.9679ZM14.1681 29.6484C13.9117 29.6434 13.6682 29.7847 13.558 30.0251L13.0248 31.1851C12.8787 31.5048 13.0273 31.879 13.358 32.0203C13.4452 32.06 13.5375 32.0773 13.6246 32.0773C13.8759 32.0773 14.1168 31.9361 14.2245 31.7006L14.7577 30.5406C14.9038 30.2184 14.7551 29.8442 14.4219 29.7004C14.3398 29.6657 14.2527 29.6484 14.1681 29.6484ZM17.4647 30.5679C17.1033 30.5159 16.77 30.7488 16.7136 31.0958L16.5111 32.35C16.4547 32.697 16.6982 33.0192 17.0571 33.0762C17.0905 33.0811 17.1238 33.0811 17.1597 33.0811C17.475 33.0811 17.7544 32.8605 17.8057 32.5458L18.0107 31.2941C18.0671 30.9471 17.8236 30.6224 17.4647 30.5679ZM20.6332 30.6423C20.2717 30.6819 20.0103 30.9917 20.0487 31.3412L20.1871 32.6028C20.2256 32.9299 20.5076 33.1704 20.8408 33.1704C20.8613 33.1704 20.887 33.1704 20.91 33.1679C21.2715 33.1282 21.5304 32.8184 21.4945 32.4689L21.3535 31.2074C21.3151 30.8579 20.9869 30.6076 20.6332 30.6423Z" fill="#07A530"/>
</svg>