<svg xmlns="http://www.w3.org/2000/svg" width="35" height="35" viewBox="0 0 35 35" fill="none">
<path d="M1.96875 0.563293C0.884399 0.563293 0 1.4353 0 2.50446V32.269C0 33.3381 0.884399 34.2101 1.96875 34.2101H32.1562C33.2406 34.2101 34.125 33.3381 34.125 32.269V2.50446C34.125 1.4353 33.2406 0.563293 32.1562 0.563293H1.96875ZM1.96875 1.8574H32.1562C32.5177 1.8574 32.8125 2.14807 32.8125 2.50446V32.269C32.8125 32.6254 32.5177 32.916 32.1562 32.916H1.96875C1.6073 32.916 1.3125 32.6254 1.3125 32.269V2.50446C1.3125 2.14807 1.6073 1.8574 1.96875 1.8574ZM5.90625 5.73973C5.54224 5.73973 5.25 6.0304 5.25 6.38679V12.8573C5.25 13.2137 5.54224 13.5044 5.90625 13.5044C6.27026 13.5044 6.5625 13.2137 6.5625 12.8573V7.94882L12.661 13.9619C12.7892 14.0883 12.9558 14.1514 13.125 14.1514C13.2942 14.1514 13.4608 14.0883 13.589 13.9619C13.8453 13.7091 13.8453 13.2997 13.589 13.0469L7.49048 7.03384H12.4688C12.8328 7.03384 13.125 6.74317 13.125 6.38679C13.125 6.0304 12.8328 5.73973 12.4688 5.73973H5.90625ZM21.6562 5.73973C21.2922 5.73973 21 6.0304 21 6.38679C21 6.74317 21.2922 7.03384 21.6562 7.03384H26.6345L20.536 13.0469C20.2797 13.2997 20.2797 13.7091 20.536 13.9619C20.6642 14.0883 20.8308 14.1514 21 14.1514C21.1692 14.1514 21.3358 14.0883 21.464 13.9619L27.5625 7.94882V12.8573C27.5625 13.2137 27.8547 13.5044 28.2188 13.5044C28.5828 13.5044 28.875 13.2137 28.875 12.8573V6.38679C28.875 6.0304 28.5828 5.73973 28.2188 5.73973H21.6562ZM17.0625 14.7985C16.337 14.7985 15.75 15.3773 15.75 16.0926C15.75 16.8079 16.337 17.3867 17.0625 17.3867C17.788 17.3867 18.375 16.8079 18.375 16.0926C18.375 15.3773 17.788 14.7985 17.0625 14.7985ZM13.125 18.0338C12.9584 18.0338 12.7892 18.097 12.661 18.2233L6.5625 24.2364V19.3279C6.5625 18.9715 6.27026 18.6808 5.90625 18.6808C5.54224 18.6808 5.25 18.9715 5.25 19.3279V25.7984C5.25 26.1548 5.54224 26.4455 5.90625 26.4455H12.4688C12.8328 26.4455 13.125 26.1548 13.125 25.7984C13.125 25.442 12.8328 25.1514 12.4688 25.1514H7.49048L13.589 19.1383C13.8453 18.8856 13.8453 18.4761 13.589 18.2233C13.4608 18.097 13.2916 18.0338 13.125 18.0338ZM21 18.0338C20.8334 18.0338 20.6642 18.097 20.536 18.2233C20.2797 18.4761 20.2797 18.8856 20.536 19.1383L26.6345 25.1514H21.6562C21.2922 25.1514 21 25.442 21 25.7984C21 26.1548 21.2922 26.4455 21.6562 26.4455H28.2188C28.5828 26.4455 28.875 26.1548 28.875 25.7984V19.3279C28.875 18.9715 28.5828 18.6808 28.2188 18.6808C27.8547 18.6808 27.5625 18.9715 27.5625 19.3279V24.2364L21.464 18.2233C21.3358 18.097 21.1666 18.0338 21 18.0338ZM3.28125 29.0337C2.91724 29.0337 2.625 29.3244 2.625 29.6808V30.9749C2.625 31.3313 2.91724 31.6219 3.28125 31.6219C3.64526 31.6219 3.9375 31.3313 3.9375 30.9749V29.6808C3.9375 29.3244 3.64526 29.0337 3.28125 29.0337ZM6.5625 29.0337C6.19849 29.0337 5.90625 29.3244 5.90625 29.6808V30.9749C5.90625 31.3313 6.19849 31.6219 6.5625 31.6219C6.92651 31.6219 7.21875 31.3313 7.21875 30.9749V29.6808C7.21875 29.3244 6.92651 29.0337 6.5625 29.0337ZM9.84375 29.0337C9.47974 29.0337 9.1875 29.3244 9.1875 29.6808V30.9749C9.1875 31.3313 9.47974 31.6219 9.84375 31.6219C10.2078 31.6219 10.5 31.3313 10.5 30.9749V29.6808C10.5 29.3244 10.2078 29.0337 9.84375 29.0337ZM13.125 29.0337C12.761 29.0337 12.4688 29.3244 12.4688 29.6808V30.9749C12.4688 31.3313 12.761 31.6219 13.125 31.6219C13.489 31.6219 13.7812 31.3313 13.7812 30.9749V29.6808C13.7812 29.3244 13.489 29.0337 13.125 29.0337ZM17.0625 29.0337C16.6985 29.0337 16.4062 29.3244 16.4062 29.6808V30.9749C16.4062 31.3313 16.6985 31.6219 17.0625 31.6219C17.4265 31.6219 17.7188 31.3313 17.7188 30.9749V29.6808C17.7188 29.3244 17.4265 29.0337 17.0625 29.0337ZM20.3438 29.0337C19.9797 29.0337 19.6875 29.3244 19.6875 29.6808V30.9749C19.6875 31.3313 19.9797 31.6219 20.3438 31.6219C20.7078 31.6219 21 31.3313 21 30.9749V29.6808C21 29.3244 20.7078 29.0337 20.3438 29.0337ZM23.625 29.0337C23.261 29.0337 22.9688 29.3244 22.9688 29.6808V30.9749C22.9688 31.3313 23.261 31.6219 23.625 31.6219C23.989 31.6219 24.2812 31.3313 24.2812 30.9749V29.6808C24.2812 29.3244 23.989 29.0337 23.625 29.0337ZM26.9062 29.0337C26.5422 29.0337 26.25 29.3244 26.25 29.6808V30.9749C26.25 31.3313 26.5422 31.6219 26.9062 31.6219C27.2703 31.6219 27.5625 31.3313 27.5625 30.9749V29.6808C27.5625 29.3244 27.2703 29.0337 26.9062 29.0337ZM30.1875 29.0337C29.8235 29.0337 29.5312 29.3244 29.5312 29.6808V30.9749C29.5312 31.3313 29.8235 31.6219 30.1875 31.6219C30.5515 31.6219 30.8438 31.3313 30.8438 30.9749V29.6808C30.8438 29.3244 30.5515 29.0337 30.1875 29.0337Z" fill="#07A530"/>
</svg>